<svg xmlns="http://www.w3.org/2000/svg" viewBox="0 0 539.23 680.71"><defs><style>.cls-1{fill:#fff;}</style></defs><title>LPD Sm Vert White</title><g id="Layer_2" data-name="Layer 2"><g id="Layer_2-2" data-name="Layer 2"><path class="cls-1" d="M337.52,653.64c.26-3,.77-3.84,3.05-4.47,2.61-.72,3.6-2.78,4.25-5,.54-1.89.81-3.87,1.19-5.81a2.15,2.15,0,0,0-.05-.71c-1.22-5.94-.68-11.94-.64-17.93,0-5,.3-10.06.38-15.1.07-4.46-2.19-7.51-6.48-9-.82-.28-1.67-.48-2.45-.83-1.42-.63-1.38-2-1.51-3.22,1.87-1.15,3.67-2.3,5.5-3.39.81-.48,1.63-1.06,2.68-.57a1,1,0,0,0,.7,0c4.57-1.69,9-.44,13.62.2a157,157,0,0,1,18.87,4.24,43.77,43.77,0,0,1,12.27,5.33c4,2.57,7.14,5.77,8.49,10.57,1,3.5,2.46,6.87,3.71,10.29.08.23.33.44.31.64-.32,3.16,0,6.55-1.13,9.42-1.73,4.52-4.36,8.69-6.64,13-.52,1-1.1,1.94-1.69,2.89-1.42,2.3-2.81,4.51-5.8,5.23-1.72.42-3.2,1.77-4.91,2.34-2.18.72-4.49,1.09-6.75,1.6a9.25,9.25,0,0,0-1.41.27c-3.14,1.23-6.34.88-9.62.73-8.06-.38-16.13-.44-24.19-.63C338.73,653.77,338.2,653.7,337.52,653.64Zm25.36-58.79c-1.26,0-2.14.06-3,0a3,3,0,0,0-3.16,2,7.77,7.77,0,0,0-.7,2c-.49,4.13-.91,8.26-1.34,12.39a2,2,0,0,0,.18.93c1.59,3.87.94,7.69-.29,11.49a5.9,5.9,0,0,0,0,4.16,20,20,0,0,1,.91,4.69,46.82,46.82,0,0,0,1.6,9.62c.95,2.91,2,5.22,5.18,6.26,2.11.68,4,1.33,6.14.28a7.73,7.73,0,0,1,1.62-.44c2.21-.51,4.43-1,6.63-1.55a5.22,5.22,0,0,0,1.72-.81,21.5,21.5,0,0,0,7.36-8,73.4,73.4,0,0,0,3.81-11,16.31,16.31,0,0,0-.29-9.23,40.53,40.53,0,0,0-6.71-12.9,7.6,7.6,0,0,1-1.36-2c-.69-2.22-2.6-3.15-4.42-3.63a26.69,26.69,0,0,1-5.49-2.24A15,15,0,0,0,362.88,594.85Z"/><path class="cls-1" d="M232.62,605.14c.29,2.73-.81,5.83-2.1,8.83a12.55,12.55,0,0,1-4.82,5.49,46.39,46.39,0,0,1-4.45,2.76,37.88,37.88,0,0,1-4.27,1.52,10.71,10.71,0,0,0-1.73.68c-2.37,1.29-4.47.18-4.81-2.48a3.62,3.62,0,0,1,1.72-3.83c2.23-1.54,4.29-3.32,6.38-5.06a5.88,5.88,0,0,0,2.05-6,16.64,16.64,0,0,0-8.26-12,3.26,3.26,0,0,0-5.09,2c-.78,2.52-1.45,5.07-2,7.64-.28,1.27-.69,2.59.31,3.89.33.43.14,1.44-.1,2.07-.92,2.39-.23,4.63.56,6.82s1.73,4.39.88,6.93c-.38,1.13,0,2.52,0,3.79.06,1.89.16,3.78.21,5.67.09,2.87.09,5.75.26,8.62a6,6,0,0,0,.84,2.46c.65,1.16,1.51,1.31,2.84,1a15.78,15.78,0,0,1,3.72-.6,2.56,2.56,0,0,1,2.71,2.22c.42,1.92,1,3.81,1.42,5.74S219,655.24,217,655c-2.07-.23-4.13-.48-6.19-.78a31.87,31.87,0,0,0-11.68.31c-1.84.41-3.68.92-5.66.42a6.21,6.21,0,0,0-2.56.46,3.74,3.74,0,0,1-4.23-1.39c-1.39-2-1.39-3.62-.08-5.25a3.83,3.83,0,0,1,1.7-1.13c4.28-1.55,5.69-3.5,5.9-8,.15-3.11.51-6.21.67-9.32.14-2.62.14-5.24.19-7.86a.64.64,0,0,0,0-.24c-1.1-3.52-.13-7.14-.59-10.71-.42-3.3-.5-6.65-.72-10a10.15,10.15,0,0,1,0-1.91c.27-2.23-.42-3.42-2.6-4.12s-4.26-1.26-6.38-1.88c-.83-.25-1.68-.39-2-1.43-.63-1.82-.43-2.72,1.34-3.48a11.16,11.16,0,0,1,3.91-1c3.47-.15,6.95-.08,10.43-.07q5.76,0,11.52.09c1.51,0,3,.17,4.55.21a16,16,0,0,1,8.52,2.85,41.6,41.6,0,0,0,4.28,2.13,5.28,5.28,0,0,1,1.6.94C231.74,597.07,232.87,600.39,232.62,605.14Z"/><path class="cls-1" d="M27.74,593.41c-.89-3.46-.39-4.55,2.5-6,.93-.48,1.82-1,2.73-1.51a3.08,3.08,0,0,1,3.41-.12c3.09,2.34,6.59,2.23,10.09,1.79a18.93,18.93,0,0,1,7.32.61c4.37,1.17,5.32,3.37,3.54,7.05L52.46,597a4.35,4.35,0,0,1-1.37.39c-2.29,0-3.52,1.48-4.25,3.31a11.54,11.54,0,0,0-1,4.62A99.12,99.12,0,0,0,47,617a56.22,56.22,0,0,1,.11,16.23c-.4,3.24-.4,6.53-.62,9.79a2.76,2.76,0,0,0,1.46,2.76,23.23,23.23,0,0,0,9,3.64c4.92.75,11.08-2.31,13.33-6.72A6,6,0,0,0,71,640.4c.15-2.46,1.6-4.3,2.82-6.24a5.06,5.06,0,0,1,1.77-1.57c1-.55,1.66-.17,1.85,1,.71,4.17,1.42,8.35,2,12.53a14.45,14.45,0,0,1,0,3.83A4.33,4.33,0,0,1,75.19,654c-1.67.15-3.35.12-5,.25a41.38,41.38,0,0,0-5.23.55c-4.4.9-8.76,0-13.14-.09-1.27,0-2.55-.19-3.82-.26a5.61,5.61,0,0,0-3,.57,5.08,5.08,0,0,1-4.62.17,2.88,2.88,0,0,0-3.13-.1,1.42,1.42,0,0,1-1.16.11c-2.6-1-5.25-.77-7.93-.52-1.22.11-2-.91-2.53-1.91a2.23,2.23,0,0,1,.25-2.87A8.24,8.24,0,0,1,31,647c1.65-4,3.41-8,3.4-12.49a3.77,3.77,0,0,0,0-.95c-1.23-4.15-.92-8.39-.76-12.62.06-1.76,0-3.52.14-5.27a12.21,12.21,0,0,1,.4-2.07c.06-.3.37-.75.27-.86-1.46-1.53-.19-3.27-.39-4.9-.23-1.82-.22-3.67-.27-5.5s0-3.52,0-5.28a4.06,4.06,0,0,0-3.31-3.5C29.53,593.52,28.67,593.47,27.74,593.41Z"/><path class="cls-1" d="M297.39,614.12c1.32-2.13,1.17-4.16.81-6.24-.19-1.07-.25-2.17-.35-3.26,0-.4,0-.8,0-1.2-.17-4.31-.85-5.2-5-6.47-2.25-.7-2.89-2-1.48-3.63a24.25,24.25,0,0,1,12.25-7.53,2,2,0,0,1,.69.05,4.09,4.09,0,0,1,1.19,4.58c-1.13,2.84,0,5.67,0,8.5,0,1,.84,2,0,3a.9.9,0,0,0,.16.84c1.11.88.53,1.92.27,2.86-.43,1.59-1.34,3.09-.23,4.78.21.32-.05.93-.07,1.41-.17,3.59-.41,7.18-.46,10.77a19.77,19.77,0,0,0,.55,5.21,17.82,17.82,0,0,1,.33,5c-.08,3.75-.21,7.51-.09,11.26a31.38,31.38,0,0,0,1,5.64c.28,1.27.74,2.5,1.18,3.95a31.93,31.93,0,0,1-3.41,2.62,3,3,0,0,1-2.06-.1c-2.2-.69-4.38-1.46-6.54-2.23a3.61,3.61,0,0,0-3.84.49c-3.14,2.81-6.48,1.93-9.89.73a12.55,12.55,0,0,0-3.22-.75c-3.27-.24-5-1.66-5.77-4.89a9.25,9.25,0,0,0-.61-2c-1.3-2.55-1.74-5.37-2.65-8-1.1-3.22-.52-6.33.39-9.41,1.56-5.24,4.89-9.43,8.47-13.41a13.88,13.88,0,0,1,3.2-2.47,5.06,5.06,0,0,1,4.13-.52C290,614.63,293.76,614.07,297.39,614.12Zm-7.93,33.52a7,7,0,0,0,5.22-.86c1.52-.92,3.35-2,3.48-3.91.19-3-.05-6-.09-9.06a15,15,0,0,1,0-3.07c.46-2.41-.83-4.52-1-6.81,0-.33-.41-.67-.68-.95-.84-.85-1.72-1.66-2.55-2.52a5,5,0,0,0-4.26-1.66c-1.74.14-3.51-.17-4.74,1.56-.34.48-1.08.65-1.61,1a3.42,3.42,0,0,0-1.07.91c-1.55,2.69-3.27,5.26-3.59,8.52a29.91,29.91,0,0,0,.41,5c.18,2.8.34,5.52,2.68,7.58.61.53.73,1.8,1.36,2.09C285.12,646.39,286.85,648.57,289.46,647.64Z"/><path class="cls-1" d="M513.58,628.6c.06.47.11.95.18,1.42A29.35,29.35,0,0,1,512,644a10.92,10.92,0,0,1-2,2.83c-.28.36-.8.58-1,1-2.22,3.87-5.92,5.87-9.68,7.85a4.37,4.37,0,0,1-2.94.46c-2.44-.39-5-.2-7.37-.79-2.95-.74-6.1-1.47-7.64-4.66-.12-.26-.35-.62-.57-.65-2.34-.28-2.78-2.4-3.84-3.91-.62-.89-1-2-1.66-2.83-3.08-4.23-3.46-8.83-1.88-13.65.87-2.65,2-5.22,3-7.83l.27-.67c1.94-5.2,5.33-8.66,11.09-9.31a7.44,7.44,0,0,0,1.87-.41c2.78-1,5.53-.39,8.28.14a7.82,7.82,0,0,0,1.4.31c2.69,0,4.65,1.45,6.39,3.29s3.85,3.49,5.09,5.63C512.17,623.14,513.74,625.62,513.58,628.6Zm-7.51,5.91a57.06,57.06,0,0,1-1.35-6,5.62,5.62,0,0,0-2.54-4.11c-1.35-1-2.57-2.13-3.91-3.14a5.68,5.68,0,0,0-2.25-1.23c-2-.33-4.12-.42-6.18-.58a1.21,1.21,0,0,0-.68.19c-2.53,1.51-4.65,3.4-5.49,6.36-.33,1.14-.58,2.31-.88,3.46-.86,3.24-1.39,6.42,1.41,9.11.25.24.27.72.42,1.08a12.37,12.37,0,0,0,8.68,8,8.25,8.25,0,0,0,7.12-1.4C504.53,643.55,505.84,639.34,506.07,634.51Z"/><path class="cls-1" d="M444,628.64c.05.47.1.94.17,1.42a29.37,29.37,0,0,1-1.73,14,11,11,0,0,1-2.06,2.8c-.29.37-.79.59-1,1-2.21,3.88-5.95,5.84-9.68,7.83a4.29,4.29,0,0,1-2.95.44c-2.36-.38-4.83-.23-7.14-.76-3.07-.69-6.22-1.5-7.85-4.71-.13-.25-.37-.59-.6-.62-2.31-.32-2.76-2.43-3.81-3.94-.62-.9-1-2-1.67-2.83-3.06-4.23-3.45-8.83-1.85-13.65.88-2.65,2-5.23,3-7.83.06-.15.12-.3.17-.45,2-5.39,5.48-8.94,11.45-9.54a5.52,5.52,0,0,0,1.41-.29c2.85-1.15,5.67-.5,8.5.08a5.92,5.92,0,0,0,1.4.29c3.1-.15,4.93,2,6.92,3.8A33.24,33.24,0,0,1,440,619.1c1.09,1.31,2.55,2.44,2.48,4.46,0,.4.47.81.7,1.23C443.79,626,444.52,627.16,444,628.64Zm-7.52,5.77c-.47-2-1.09-4-1.36-6a5.49,5.49,0,0,0-2.42-3.93c-1.41-1-2.67-2.26-4.1-3.27a7,7,0,0,0-2.74-1.26,52.41,52.41,0,0,0-5.47-.48,1.57,1.57,0,0,0-.9.22c-2.46,1.47-4.52,3.32-5.38,6.17-.41,1.37-.71,2.77-1.06,4.16-.77,3-1.08,6,1.47,8.44.25.25.31.71.49,1,1,1.88,1.46,4.12,3.4,5.34a21.39,21.39,0,0,0,5.16,2.75c2.91.91,5.22,0,7.34-1.43C435,643.47,436.25,639.23,436.47,634.41Z"/><path class="cls-1" d="M180.24,612.48c-.81,1.42-1.57,2.86-3.18,3.67a2.5,2.5,0,0,0-1.07,1.2c-2.85,6.77-5.73,13.53-8.44,20.35-1,2.57-1.75,5.26-2.76,7.86a26,26,0,0,1-4,7.4,26,26,0,0,0-2.53,4.83,7.61,7.61,0,0,1-.63,1.28c-2.75,3.41-4.3,7.52-6.61,11.19a7.78,7.78,0,0,1-5.9,3.9,51.28,51.28,0,0,1-5.68.39,3.87,3.87,0,0,1-3.41-2.91c-.41-2.13.46-4.06,2.4-4.66a31.27,31.27,0,0,1,5.6-1.15,4.22,4.22,0,0,0,2.69-1.34,49.9,49.9,0,0,0,8.2-12.33,2.89,2.89,0,0,0,.05-2c-1-2.77-2.08-5.5-3.14-8.25-.11-.29-.26-.58-.35-.88-.76-2.6-1.54-5.19-2.25-7.8a34.22,34.22,0,0,0-4.39-9.26,12.93,12.93,0,0,1-.87-2,5.1,5.1,0,0,0-3.84-3.19c-4.44-1-5-2.25-2.43-6.46,4.74,0,9.6-.4,14.42.41a6.39,6.39,0,0,1,2.62,1.09c1.3.91,1.23,1.87,0,2.87a4.4,4.4,0,0,1-.79.54,2.1,2.1,0,0,0-1.09,2.78c.3,1.07.5,2.19.88,3.23a76.82,76.82,0,0,0,6,13.19l2.63.22c1.95-5.38,3.61-10.9,5.16-16.58a9.58,9.58,0,0,1-4.88-3.66c-.86-1.21-.09-2,.43-3a1.63,1.63,0,0,1,2.17-.94c3.3,1.38,6.08-.43,8.92-1.45S177.73,609.91,180.24,612.48Z"/><path class="cls-1" d="M267.6,650.8c-.48,1.38-.89,2.55-1.33,3.83l-4.9,1.5a5.14,5.14,0,0,1-4.76-.8c-1.59-1.14-3.2-2.22-5.42-1.86a7.81,7.81,0,0,0-2.44.65,10.18,10.18,0,0,1-4,1.53c-1.84.07-3.75.67-5.63-.38a6.12,6.12,0,0,1-2.92-3.6c-.49-1.42-1.23-2.77-1.58-4.22a10.32,10.32,0,0,1,.92-7.86,2.93,2.93,0,0,1,1.56-1,8.7,8.7,0,0,0,3.77-2.85,18.9,18.9,0,0,1,2.51-2.47c1.6-1.32,3.41-2.43,4.88-3.88a56.07,56.07,0,0,0,4.05-5c-1.21-1.3-1.32-3.39-3.27-4.34a2,2,0,0,0-2-.19A43.45,43.45,0,0,0,242,623c-1.72,1.29-3.3,2.77-5.34,3.52-2.48-2.21-2.53-5,0-6.9a18.54,18.54,0,0,0,4.3-4.36,10.9,10.9,0,0,1,6.5-4.24,11.25,11.25,0,0,1,3.74.11c.61.06,1.18.5,1.8.62,3.49.7,5.24,3.39,7,6.07a4.78,4.78,0,0,1,.41,1.85,39.05,39.05,0,0,1,.6,7c-.16,5.26.34,10.54.59,15.81,0,.88.17,1.75.25,2.62a4.06,4.06,0,0,0,3.66,4C266.53,649.29,266.53,649.29,267.6,650.8Zm-15.18-17.2c-2.33,1.54-4.52,3.13-6.84,4.48-3.49,2-3.54,6.16-.34,8.61,1.85,1.41,3.93,1.21,5.88.18a4.19,4.19,0,0,0,2.59-4.41c-.12-1.25.3-2.56.1-3.78C253.56,637.12,254.07,635.35,252.42,633.6Z"/><path class="cls-1" d="M132.92,656.36c-3.42-.16-6.71-.3-10-.47a17.06,17.06,0,0,1-2.13-.3,5.27,5.27,0,0,0-4,.39,2.57,2.57,0,0,1-2.92-.17,31,31,0,0,0-3.18-1.52c-.11-2.24,1.8-3.1,2.73-4.56.33-.52.92-1,1.06-1.53,1.09-4.3,2.64-8.52,2.29-13.08a4.08,4.08,0,0,0-.15-1.41c-.79-1.73-1.36-3.4-.07-5.18.19-.26,0-1-.22-1.33a5.67,5.67,0,0,1-.42-4,62.05,62.05,0,0,0,.14-14.35,9.84,9.84,0,0,1,.05-3.34c.54-2-.46-3-2-3.85a12.87,12.87,0,0,0-2.45-.92c-1.25-.37-2.25-1.4-2.06-2.45a2.6,2.6,0,0,1,2-2.31c2.22-.71,4.71-1,6.41-2.92A24.37,24.37,0,0,1,121,590a16,16,0,0,1,3.64-2.21c1.66-.72,2.27-.4,2.4,1.36a22.63,22.63,0,0,1-.23,5.7,58.37,58.37,0,0,0-.51,14.58c.17,2.47.59,5,.14,7.4-.55,2.89-.22,5.69-.19,8.53,0,1.56-.08,3.13-.13,4.7,0,.16-.05.32,0,.47.3,4.93.59,9.86.91,14.79,0,.63.25,1.25.33,1.88a4.07,4.07,0,0,0,2.69,3.62,9,9,0,0,1,1.85,1.11C133.81,653.31,133.92,653.73,132.92,656.36Z"/><path class="cls-1" d="M448.64,617.81a58.73,58.73,0,0,1,6.85-2.92c1.47-.43,2.7-1.22,4.06-1.73a11.61,11.61,0,0,1,4.45-.4c.48,0,1.06.88,1.34,1.48a26.59,26.59,0,0,1,1.92,8.85c.65,7.2.14,14.38-.14,21.57-.06,1.52-.11,3-.25,4.55-.61,6.63-2.09,13-6.13,18.48a31.32,31.32,0,0,0-3.65,6.95,10.42,10.42,0,0,1-6,5.84,2.36,2.36,0,0,1-2.84-.58,2.14,2.14,0,0,1-.12-2.85c.13-.2.36-.41.36-.62-.07-2.69,1.83-4.42,3.06-6.51,2.17-3.7,3.17-7.84,4.1-12,.68-3,1.13-6.13,1.65-9.2.18-1.08.61-2.18-.21-3.22-.14-.19-.06-.62,0-.9,1.14-3.45.27-7,.5-10.47-1.58-2.73-.63-6.12-2.32-8.82a13.92,13.92,0,0,0-1.55-2.38,6.17,6.17,0,0,0-2-1.06,2.38,2.38,0,0,0-.71-.07c-2.79-.32-3.34-1.14-2.52-3.77C448.6,617.84,448.73,617.63,448.64,617.81Z"/><path class="cls-1" d="M108,655.5c-1.33.2-2.25.32-3.17.48-4.08.71-8.08.81-11.94-1.11a4.94,4.94,0,0,0-2.52-.21c-2.3.21-4.59.63-6.89.77-2,.13-2.44-.57-2.25-2.63a4.4,4.4,0,0,1,3.32-4.12c3.89-1.38,3.85-1.47,4.42-5.47.6-4.26,1.46-8.53,1-12.85-.32-3.25-.94-6.46-1.47-9.69a7.38,7.38,0,0,0-.62-1.8c-.92-2.06-1.53-2.33-3.67-1.7a8.17,8.17,0,0,1-1.12.18c-.11-1.62,1.23-3.7,2.75-3.87,3.25-.36,6.52-.56,9.78-.66a2.29,2.29,0,0,1,2.56,2.29c.14,2.46.3,4.93.23,7.39-.1,3.66-.81,7.31,0,11a1,1,0,0,1,0,.48c-1,4.52.4,8.87.91,13.29a2.85,2.85,0,0,0,1.87,2.51c2,.87,3.89,2.17,6.41,2C107.8,653,107.91,654.22,108,655.5Z"/><path class="cls-1" d="M93.68,590.62c2.37-.86,4,.77,5.57,2.77.19.26.41.49.6.75,1.89,2.45,1.66,5.18-.65,7.14a2.57,2.57,0,0,1-1.29.51c-2.46.27-4.92.61-7.39.67A4.7,4.7,0,0,1,86,597.12a10.64,10.64,0,0,1,3.14-5.81,3,3,0,0,1,1.68-.66A23.19,23.19,0,0,1,93.68,590.62Z"/><path class="cls-1" d="M460.51,603c-2.18-.15-4.42-.6-5.93-2.91s-.21-5.66,1.05-7.38c1.68-2.3,6-3.18,8.51-1.87,2.26,1.17,3.45,4.37,2.71,7.27,0,.15-.07.31-.11.47C465.7,602.25,464.66,603,460.51,603Z"/><path class="cls-1" d="M326,432.64a15.52,15.52,0,0,1,2.12-5.81,9.36,9.36,0,0,0,.94-2.28q1.53-4.69,3-9.42c1-3.17.65-6.43.22-9.61-.66-4.85-2.73-9.26-4.84-13.64-3.41-7.1-8.44-12.95-13.88-18.52-4.58-4.7-9.27-9.31-13.51-14.29a129.23,129.23,0,0,1-12.93-17.83c-3.27-5.53-5.77-11.38-8.6-17.1a56.34,56.34,0,0,1-5.28-14c-.28-1.39-1-2.69-1.4-4.07-.66-2.2-1.22-4.43-1.83-6.65-.1-.34-.29-.66-.6-1.39-.37,1.61-.73,2.78-.9,4a31.88,31.88,0,0,1-2.49,7.81c-.93,2.23-2.39,4.17-3.13,6.5a10.77,10.77,0,0,1-2.8,4c-1.83,1.84-2.54,4.22-3.7,6.41-1.41,2.66-1.18,5.74-2.56,8.39a10.43,10.43,0,0,1-.71,1.3c-1,1.46-1.92,3-2.84,4.49-1.05,1.7-2.75,2.88-3.9,4.38-3,3.87-6.9,6.94-9.16,11.39-.54,1.07-1.77,1.79-2.67,2.67-.73.72-1.47,1.43-2.19,2.15a19.74,19.74,0,0,1-2.32,2.34,41.83,41.83,0,0,0-8.21,8.07c-2.23,2.75-3.45,5.94-5.31,8.83-.12.2-.13.48-.28.64-3.45,3.74-5.49,8.4-8.22,12.61a4.61,4.61,0,0,0-.43,1.07c-.59,1.65-1.17,3.29-1.74,4.95-.15.43-.27.87-.4,1.31-.22.73-.23,1.64-.7,2.15-1.52,1.66-1.48,3.74-1.28,5.61.44,4.07,1.39,8.08,1.95,12.15.51,3.76,2.22,7.11,3.3,10.68a28.45,28.45,0,0,1,1,3.71,20.57,20.57,0,0,1-3-4.54,121.33,121.33,0,0,1-7.36-17.9c-.91-2.7-2.06-5.48-2.15-8.26-.08-2.43-1-4.91-.14-7.37.73-2.23,1.42-4.47,2.2-6.91a5.53,5.53,0,0,0-.66-.54c-8.29-5.43-16.7-10.68-24.84-16.33A164.68,164.68,0,0,1,153,356.12a18.46,18.46,0,0,1-1.47-1.9l-.51.39c.58,1.4,1.18,2.79,1.74,4.2a11.69,11.69,0,0,1,.76,2.25c.41,2.55,1.68,4.78,2.49,7.18a59.35,59.35,0,0,1,1.84,6.41,70.35,70.35,0,0,1,1.46,8.11,43,43,0,0,1,.06,6.9c-.25,4.65-.27,9.32-1.14,13.94-.31,1.62-.2,3.32-.42,5A38.44,38.44,0,0,1,154.2,420a18.35,18.35,0,0,0-.73,2.49c-.19.61-.25,1.44-.67,1.75a6.58,6.58,0,0,0-1,5.54c.48,2.46.29,5,1.38,7.42,1.22,2.65,2.1,5.46,3.25,8.14.72,1.69,1.65,3.28,2.53,4.9,3.34,6.13,8.25,10.95,13.21,15.73l2,1.91-.29.39c-.81-.57-1.65-1.09-2.43-1.71a116.57,116.57,0,0,1-21.32-21.31,11.5,11.5,0,0,0-4.92-3.24,134.91,134.91,0,0,1-17.09-8.55c-1.35-.79-2.67-1.61-4.39-2.64a6.76,6.76,0,0,0,.47,1.24c4.36,6.17,7.43,13,10.59,19.82,1.32,2.81,2.7,5.61,3.81,8.5a66.86,66.86,0,0,1,2.62,8.43c.82,3.46,1.1,7.06,2.06,10.47a54.69,54.69,0,0,0,4.26,11.63c4,11.71,14,18.71,20.47,23.11a8.13,8.13,0,0,0,1.43.87c-.14.18-.29,1.36-.43,1.53a6.91,6.91,0,0,1-1.09-.26c-7.29-2.79-19.79-10.11-26.63-14-4.23-2.4-8.53-4.7-12.6-7.36-5.89-3.83-11.64-7.88-17.35-12-17.53-12.53-32.77-27.56-47.07-43.6A191.75,191.75,0,0,1,41.1,406.41c-2.28-4-4.93-7.82-7.3-11.8-2.11-3.56-4.08-7.21-6.07-10.84-1.11-2-2.09-4.13-3.2-6.16a95.79,95.79,0,0,1-8.64-21.94c-1.31-5.08-3.23-10-4.69-15-.81-2.83-1.26-5.76-1.86-8.64-.85-4.11-1.65-8.23-2.52-12.34s-2.05-8.33-2.68-12.55-.7-8.67-1.14-13c-.19-2-.65-3.88-1-5.83-.29-1.62-.65-3.24-.86-4.87C.83,281,.6,278.68.42,276.31c-.1-1.23,0-2.47,0-3.71-.13-3.71-.66-7.43-.19-11.15.26-2,.78-4,1-6,.34-2.7.56-5.43.8-8.15.3-3.38.6-6.76.81-10.14.14-2.13.05-4.27.21-6.39a126.27,126.27,0,0,1,1.82-15c.86-4.32,1.38-8.71,2.24-13a27.34,27.34,0,0,1,1.77-4.87c1.13-2.79,2.44-5.5,3.43-8.33s1.78-5.87,2.6-8.83c.37-1.34.62-2.71.92-4.07.36-1.56.68-3.14,1.08-4.7.63-2.5,1.23-5,2-7.49a13.93,13.93,0,0,1,1.82-3.31,50.11,50.11,0,0,0,4.56-7.91A6.22,6.22,0,0,1,27,150.65a6.88,6.88,0,0,0,2.09-3.09c.58-1.28,1.44-2.45,2-3.75.91-2.26,1.64-4.59,2.48-6.87.33-.87.77-1.7,1.16-2.55,1.19-2.68,2.32-5.4,3.59-8,.66-1.35,1.64-2.55,2.35-3.88,1.08-2,2.15-4,3-6.15a28,28,0,0,1,5.23-8.8,17,17,0,0,0,1.37-2,26.3,26.3,0,0,1,7.17-7.09c1.8-1.2,3.07-3.17,4.62-4.76.67-.69,1.42-1.3,2.14-1.93.17-.15.46-.24.53-.42,1.15-3,3.91-4.46,6.12-6.44,1.55-1.4,3.54-2.52,4.58-4.23,1.23-2,3.23-3.18,4.62-5a69.21,69.21,0,0,1,5.82-6.18c.65-.66,1.52-1.1,2.23-1.71,2.38-2.06,4.68-4.22,7.12-6.21,1.37-1.12,3-2,4.44-2.95.78-.52,1.56-1,2.3-1.61,1.22-1,2.44-1.89,3.59-2.91s2-2,3-3c1.91-1.81,3.85-3.59,5.77-5.38a8.68,8.68,0,0,1,3.57-2.1c1.23-.35,2.2-1.58,3.43-1.94,1.61-.48,2.8-2,4.66-1.79a.93.93,0,0,0,.72-.55,3.21,3.21,0,0,1,2.46-2.48c1.18-.39,1.77-1.55,3-2.08,2.06-.9,3.81-2.49,5.79-3.6a90.49,90.49,0,0,0,8.94-5.42,13.64,13.64,0,0,1,4.89-1.68,10.8,10.8,0,0,0,5.08-2.33,34.24,34.24,0,0,1,3.61-2.18,27.52,27.52,0,0,0,3.08-2.52c1.92-1.76,3.86-3.34,6.72-3.23.78,0,1.55-.69,2.36-.89,1.37-.33,2.81-.38,4.14-.81A27.12,27.12,0,0,0,183,9.69a25.42,25.42,0,0,1,8-3.2,56.88,56.88,0,0,0,5.75-2.12,21.73,21.73,0,0,1,2.77-.74A28.31,28.31,0,0,0,203,3c3.23-1.12,6.65-.92,9.93-1.64,2.68-.58,5.42-.81,8.12-1.28a3.62,3.62,0,0,1,3.26,1,54.69,54.69,0,0,1,8.44,9.47c4.25,5.86,7.21,12.35,10,19,1.92,4.63,2.89,9.45,4.16,14.21.86,3.22,1.7,6.45,2.31,9.72.85,4.49,1.38,9,2.2,13.54.5,2.73,1.26,5.42,2,8.1,1.36,5.12,2.71,10.25,4.18,15.34a54.84,54.84,0,0,1,2.5,12.34c0,.64.11,1.27.14,1.9a66.75,66.75,0,0,0,1.72,12.72,46.56,46.56,0,0,1,.67,6.6c.39,4.34.81,8.67,1.16,13,.1,1.17,0,2.36,0,3.53.11,3.72.08,7.44.39,11.14.41,5,1,9.94,1.69,14.89a106.56,106.56,0,0,0,2.26,12.33,44.44,44.44,0,0,1,1.49,13.23c-.23,5.4.57,10.74.42,16.12-.07,2.6,0,5.2,0,7.8a11.88,11.88,0,0,0,.28,1.81c.32-.12.58-.16.59-.22q.24-4.24.43-8.49a32.06,32.06,0,0,1,1.12-8.7,11.73,11.73,0,0,0,.06-2.79,38,38,0,0,1,.43-4,29.38,29.38,0,0,0,.38-7.56c-.32-3.89-.9-7.78,0-11.77a14.32,14.32,0,0,0-.56-7.23,11.14,11.14,0,0,1-.39-6.77c.67-2.14.58-4.5.83-6.76a1.7,1.7,0,0,1,.14-.69c1.36-2.08.79-4.45,1-6.69.35-3.63.52-7.28.85-10.91.1-1.09.58-2.14.75-3.23a5.53,5.53,0,0,0,0-2.59c-.91-2.35-.31-4.65.46-6.72,1.07-2.9,1.12-5.92,1.71-8.86.27-1.3.36-2.63.61-3.93.63-3.42,1.34-6.83,1.93-10.25A37.5,37.5,0,0,0,281,95.5a65.68,65.68,0,0,1,1.82-12.31,21.08,21.08,0,0,0,.39-3.56c.17-2.37.19-4.75.48-7.1a33.3,33.3,0,0,1,1.19-5.59c.65-2.11,1.61-4.12,2.31-6.22a24.63,24.63,0,0,0,1.39-5.28,32.47,32.47,0,0,1,2.5-8.78c1.43-3.69,3-7.33,4.24-11.06,1.44-4.27,2.88-8.45,6-11.9,1.29-1.4,1.85-3.45,2.85-5.14.82-1.37,1.86-2.61,2.73-3.95a56.4,56.4,0,0,1,3.67-5.73c1.58-1.86,1.78-4.48,3.8-6.06,1.76-1.39,3.4-2.28,5.82-1.45s5.09,1.06,7.62,1.69c2.77.7,5.48,1.63,8.25,2.31,5.79,1.41,11.34,3.66,17.28,4.54a37.1,37.1,0,0,1,5.25,1.57c4.05,1.23,8.14,2.32,12.13,3.7,3.53,1.23,7,2.67,10.4,4.21C385,21.12,388.77,23,392.51,25c2.32,1.22,4.5,2.72,6.73,4.1,7.26,4.51,14.66,8.8,21.74,13.56a260.1,260.1,0,0,1,53,47.23,201.22,201.22,0,0,1,17.81,24.08c3.88,6.23,8,12.33,11.86,18.56,1.94,3.11,3.65,6.36,5.45,9.56s3.73,6.5,5.41,9.85c1.61,3.19,3.07,6.47,4.4,9.79,1.41,3.54,2.73,7.14,3.85,10.79,1.51,4.94,2.72,10,4.18,14.93,1.17,3.95,2.53,7.85,3.79,11.78,1,3.16,2.12,6.31,2.91,9.53.5,2.07.36,4.28.74,6.39.61,3.43,1.46,6.81,2.12,10.23.86,4.41,2.24,8.69,2.1,13.33-.14,4.43.5,8.87.58,13.32a66,66,0,0,1-.61,6.85c-.35,4.1-1.18,8.17-.64,12.33a10.54,10.54,0,0,1-.16,4,15.36,15.36,0,0,0-.13,4.92c.09,1.79-.12,3.58-.17,5.37a13.88,13.88,0,0,0,0,4c1,3.61.22,7-.61,10.47-.64,2.68-1.64,5.29-2.08,8s-1.7,5.46-1.93,8.39-1.22,5.75-1.81,8.64a38.76,38.76,0,0,0-1,5.83c-.12,2.93-1.26,5.55-2,8.29-.38,1.33-.37,2.76-.63,4.14s-.64,3.06-1,4.58c-.29,1.24-.53,2.5-.94,3.7-.51,1.49-1.15,2.95-1.78,4.4a55,55,0,0,0-2.88,7.38,28.68,28.68,0,0,1-2,4.28c-.21.43-.58.87-.57,1.3.09,4.47-2.81,7.69-4.66,11.35a9.45,9.45,0,0,0-.51,1.69,4.57,4.57,0,0,1-.29,1.13c-.91,1.54-1.81,3.1-2.84,4.56a22.65,22.65,0,0,0-2.85,5,10.26,10.26,0,0,1-1.9,2.65c-1.71,2-3.63,3.91-5.15,6.07a29.6,29.6,0,0,0-3.33,6.26c-1.42,3.64-2.7,7.27-5.58,10.14-1.21,1.2-1.85,2.94-3,4.26-1.36,1.62-2.93,3.06-4.42,4.58-.22.22-.58.4-.66.67-1.08,3.43-3.91,5.65-5.78,8.52a22.28,22.28,0,0,1-1.27,2.43c-1.15,1.34-2.51,2.52-3.73,3.81a19.28,19.28,0,0,0-2.09,2.52c-.86,1.31-1.56,2.72-2.39,4a7.32,7.32,0,0,1-1.29,1.38c-3.24,3-6.48,6-9.74,8.9a29.09,29.09,0,0,1-3,2.34,5.87,5.87,0,0,0-2.64,2.64,1.63,1.63,0,0,1-.87.78c-3.2,1.29-5.16,4-7.49,6.33-.23.22-.45.58-.71.62-1.72.3-2.18,1.85-3.1,3s-1.87,2.11-2.84,3.14c-1.17,1.23-2.35,2.45-3.56,3.65-.53.52-1.08,1.28-1.72,1.38-2.12.35-3.59,1.86-5.41,2.72-3,1.43-5,3.7-7.93,5.27-1,.5-3.29,1.2-4,2a9.81,9.81,0,0,1-4,3c-1.34.55-2.8,2.11-4,3-2.47,1.8-2.57,3.14-5,5-1.57,1.19-9.38,8.88-11,10-1.28.88-6.57,5.36-8,6s-5.49,1.4-7,2-13.39,7.59-15,8c-2.06.51-17.91,4.79-20,5-.76.07-6.23-.24-7,.06a32.85,32.85,0,0,1-5.55,1.85c.42-.6.71-1.53,1.28-1.76,2.8-1.12,8.19-2.65,10.7-4.15,2.77.08,18.64-9.31,20.88-10.88.89-.62,12.94-9,13.84-9.6a3.73,3.73,0,0,0,1.28-2.52c.12-1.26,10.42-9.92,11.46-10.94,1.73-1.71,2.16-4.13,2.91-6.32a57.39,57.39,0,0,1,3.25-8.83,12,12,0,0,0,1.16-3.62c.82-4.9,1.33-9.87,2.37-14.72.86-4.07,1.34-8.29,3.53-12a57.43,57.43,0,0,0,2.87-5.36,35.43,35.43,0,0,0,1.34-4.24,9,9,0,0,1,2.13-3.83,9.11,9.11,0,0,0,1.86-4.11,4.12,4.12,0,0,1,.86-2.08,13.44,13.44,0,0,0,1.69-2.55c.15-.27,0-.69,0-1.4-.85.74-1.61,1.11-1.93,1.71-.94,1.82-2.91,2.33-4.25,3.6-2.72,2.59-6.27,4-9.12,6.43-1.75,1.51-4.11,2.37-6.28,3.34a6.13,6.13,0,0,0-2.89,2.66c-1.11,1.89-2.07,4-3.61,5.48-2,2-3.69,4.29-5.92,6.12-2.84,2.34-5.35,5.08-8.05,7.59a24.55,24.55,0,0,1-2.83,2.12c-1.91,1.31-3.83,2.62-5.79,3.85-.39.25-1,.14-1.52.19l.05,0,3.37-3.73c1.81-.18,2.43-1.9,3.58-2.89,2-1.71,3.42-4,5.77-5.41a3.2,3.2,0,0,0,1.3-1.38c1.28-3,3.54-5.34,5.14-8.11a41.17,41.17,0,0,0,1.86-3.84c.64-1.45,1.18-2.94,1.81-4.39a16.87,16.87,0,0,0,1.16-7.7A80.72,80.72,0,0,0,381,423c-.45-2.48-1.41-4.87-1.91-7.35-.86-4.21-1.63-8.44-2.24-12.69a25.65,25.65,0,0,1,.19-4.7,34.32,34.32,0,0,0,.13-5c-.45-4.26.49-8.32,1.43-12.4a13.49,13.49,0,0,0,.46-3.26,21.16,21.16,0,0,1,2-8.73c1.32-3.11,2.73-6.18,4.08-9.28.58-1.34,1.1-2.72,1.82-4.51-.91.55-1.62.72-1.77,1.1-1.14,2.93-4.45,3.45-6.2,5.69a2.73,2.73,0,0,1-1.46.75c-3,.77-5.23,3.05-8.13,4a.7.7,0,0,0-.39.25c-1.27,2.21-3.79,2.77-5.59,4.28-.83.69-1.54,1.53-2.31,2.29-.28.28-.54.72-.87.79-1.69.37-2.3,2.16-3.95,2.75-1.39.49-2.46,1.89-3.68,2.87-.44.35-.9.93-1.35.93-3.11,0-5.1,2.54-7.86,3.37-1,.29-1.66,1.49-2.6,2.2-1.45,1.09-3.12,1.5-4.79,2.49.56,1.83,1.1,3.72,1.71,5.59.83,2.56,2,5.07,1.87,7.8a37.66,37.66,0,0,1-1.12,8.37c-.66,2.25-2.21,4.25-3.35,6.36-.37.69-.71,1.38-1,2.09-.83,1.76-2.12,3.48-2.34,5.33s-1.26,2.85-2.18,4.12-1.85,2.73-2.8,4.07c-.14.15-.19.29-.33.46Z"/></g></g></svg>