<svg xmlns="http://www.w3.org/2000/svg" xmlns:xlink="http://www.w3.org/1999/xlink" viewBox="0 0 539.23 680.71"><defs><style>.cls-1{fill:url(#radial-gradient);}</style><radialGradient id="radial-gradient" cx="252.58" cy="664.64" r="774.58" gradientUnits="userSpaceOnUse"><stop offset="0.34" stop-color="#222d35"/><stop offset="1" stop-color="#5b7031"/></radialGradient></defs><title>LPD Sm Vert Color</title><g id="Layer_2" data-name="Layer 2"><g id="Layer_2-2" data-name="Layer 2"><path class="cls-1" d="M337.52,653.64c.26-3,.77-3.84,3.05-4.47,2.61-.72,3.6-2.78,4.25-5,.54-1.89.81-3.87,1.19-5.81a2.15,2.15,0,0,0-.05-.71c-1.22-5.94-.68-11.94-.64-17.93,0-5,.3-10.06.38-15.1.07-4.46-2.19-7.51-6.48-9-.82-.28-1.67-.48-2.45-.83-1.42-.63-1.38-2-1.51-3.22,1.87-1.15,3.67-2.3,5.5-3.39.81-.48,1.63-1.06,2.68-.57a1,1,0,0,0,.7,0c4.57-1.69,9-.44,13.62.2a157,157,0,0,1,18.87,4.24,43.77,43.77,0,0,1,12.27,5.33c4,2.57,7.14,5.77,8.49,10.57,1,3.5,2.46,6.87,3.71,10.29.08.23.33.44.31.64-.32,3.16,0,6.55-1.13,9.42-1.73,4.52-4.36,8.69-6.64,13-.52,1-1.1,1.94-1.69,2.89-1.42,2.3-2.81,4.51-5.8,5.23-1.72.42-3.2,1.77-4.91,2.34-2.18.72-4.49,1.09-6.75,1.6a9.25,9.25,0,0,0-1.41.27c-3.14,1.23-6.34.88-9.62.73-8.06-.38-16.13-.44-24.19-.63C338.73,653.77,338.2,653.7,337.52,653.64Zm25.36-58.79c-1.26,0-2.14.06-3,0a3,3,0,0,0-3.16,2,7.77,7.77,0,0,0-.7,2c-.49,4.13-.91,8.26-1.34,12.39a2,2,0,0,0,.18.93c1.59,3.87.94,7.69-.29,11.49a5.9,5.9,0,0,0,0,4.16,20,20,0,0,1,.91,4.69,46.82,46.82,0,0,0,1.6,9.62c.95,2.91,2,5.22,5.18,6.26,2.11.68,4,1.33,6.14.28a7.73,7.73,0,0,1,1.62-.44c2.21-.51,4.43-1,6.63-1.55a5.22,5.22,0,0,0,1.72-.81,21.5,21.5,0,0,0,7.36-8,73.4,73.4,0,0,0,3.81-11,16.31,16.31,0,0,0-.29-9.23,40.53,40.53,0,0,0-6.71-12.9,7.6,7.6,0,0,1-1.36-2c-.69-2.22-2.6-3.15-4.42-3.63a26.69,26.69,0,0,1-5.49-2.24A15,15,0,0,0,362.88,594.85ZM229,593.93a5.28,5.28,0,0,0-1.6-.94,41.6,41.6,0,0,1-4.28-2.13,16,16,0,0,0-8.52-2.85c-1.52,0-3-.18-4.55-.21q-5.76-.07-11.52-.09c-3.48,0-7-.08-10.43.07a11.16,11.16,0,0,0-3.91,1c-1.77.76-2,1.66-1.34,3.48.35,1,1.2,1.18,2,1.43,2.12.62,4.27,1.2,6.38,1.88s2.87,1.89,2.6,4.12a10.15,10.15,0,0,0,0,1.91c.22,3.32.3,6.67.72,10,.46,3.57-.51,7.19.59,10.71a.64.64,0,0,1,0,.24c0,2.62,0,5.24-.19,7.86-.16,3.11-.52,6.21-.67,9.32-.21,4.48-1.62,6.43-5.9,8a3.83,3.83,0,0,0-1.7,1.13c-1.31,1.63-1.31,3.22.08,5.25a3.74,3.74,0,0,0,4.23,1.39,6.21,6.21,0,0,1,2.56-.46c2,.5,3.82,0,5.66-.42a31.87,31.87,0,0,1,11.68-.31c2.06.3,4.12.55,6.19.78,1.91.21,2.22-.07,1.85-1.85s-1-3.82-1.42-5.74a2.56,2.56,0,0,0-2.71-2.22,15.78,15.78,0,0,0-3.72.6c-1.33.35-2.19.2-2.84-1a6,6,0,0,1-.84-2.46c-.17-2.87-.17-5.75-.26-8.62,0-1.89-.15-3.78-.21-5.67,0-1.27-.41-2.66,0-3.79.85-2.54-.08-4.67-.88-6.93s-1.48-4.43-.56-6.82c.24-.63.43-1.64.1-2.07-1-1.3-.59-2.62-.31-3.89.58-2.57,1.25-5.12,2-7.64a3.26,3.26,0,0,1,5.09-2,16.64,16.64,0,0,1,8.26,12,5.88,5.88,0,0,1-2.05,6c-2.09,1.74-4.15,3.52-6.38,5.06a3.62,3.62,0,0,0-1.72,3.83c.34,2.66,2.44,3.77,4.81,2.48a10.71,10.71,0,0,1,1.73-.68,37.88,37.88,0,0,0,4.27-1.52,46.39,46.39,0,0,0,4.45-2.76,12.55,12.55,0,0,0,4.82-5.49c1.29-3,2.39-6.1,2.1-8.83C232.87,600.39,231.74,597.07,229,593.93ZM30.4,593.6a4.06,4.06,0,0,1,3.31,3.5c0,1.76,0,3.52,0,5.28s0,3.68.27,5.5c.2,1.63-1.07,3.37.39,4.9.1.11-.21.56-.27.86a12.21,12.21,0,0,0-.4,2.07c-.09,1.75-.08,3.51-.14,5.27-.16,4.23-.47,8.47.76,12.62a3.77,3.77,0,0,1,0,.95c0,4.51-1.75,8.52-3.4,12.49a8.24,8.24,0,0,0-5.12,2.89,2.23,2.23,0,0,0-.25,2.87c.57,1,1.31,2,2.53,1.91,2.68-.25,5.33-.48,7.93.52a1.42,1.42,0,0,0,1.16-.11,2.88,2.88,0,0,1,3.13.1,5.08,5.08,0,0,0,4.62-.17,5.61,5.61,0,0,1,3-.57c1.27.07,2.55.22,3.82.26,4.38.14,8.74,1,13.14.09a41.38,41.38,0,0,1,5.23-.55c1.68-.13,3.36-.1,5-.25a4.33,4.33,0,0,0,4.26-4.09,14.45,14.45,0,0,0,0-3.83c-.59-4.18-1.3-8.36-2-12.53-.19-1.16-.87-1.54-1.85-1a5.06,5.06,0,0,0-1.77,1.57c-1.22,1.94-2.67,3.78-2.82,6.24a6,6,0,0,1-.75,2.26c-2.25,4.41-8.41,7.47-13.33,6.72a23.23,23.23,0,0,1-9-3.64A2.76,2.76,0,0,1,46.46,643c.22-3.26.22-6.55.62-9.79A56.22,56.22,0,0,0,47,617a99.12,99.12,0,0,1-1.13-11.67,11.54,11.54,0,0,1,1-4.62c.73-1.83,2-3.3,4.25-3.31a4.35,4.35,0,0,0,1.37-.39l4.87-1.76c1.78-3.68.83-5.88-3.54-7.05a18.93,18.93,0,0,0-7.32-.61c-3.5.44-7,.55-10.09-1.79a3.08,3.08,0,0,0-3.41.12c-.91.5-1.8,1-2.73,1.51-2.89,1.47-3.39,2.56-2.5,6C28.67,593.47,29.53,593.52,30.4,593.6Zm267,20.52c1.32-2.13,1.17-4.16.81-6.24-.19-1.07-.25-2.17-.35-3.26,0-.4,0-.8,0-1.2-.17-4.31-.85-5.2-5-6.47-2.25-.7-2.89-2-1.48-3.63a24.25,24.25,0,0,1,12.25-7.53,2,2,0,0,1,.69.05,4.09,4.09,0,0,1,1.19,4.58c-1.13,2.84,0,5.67,0,8.5,0,1,.84,2,0,3a.9.9,0,0,0,.16.84c1.11.88.53,1.92.27,2.86-.43,1.59-1.34,3.09-.23,4.78.21.32-.05.93-.07,1.41-.17,3.59-.41,7.18-.46,10.77a19.77,19.77,0,0,0,.55,5.21,17.82,17.82,0,0,1,.33,5c-.08,3.75-.21,7.51-.09,11.26a31.38,31.38,0,0,0,1,5.64c.28,1.27.74,2.5,1.18,3.95a31.93,31.93,0,0,1-3.41,2.62,3,3,0,0,1-2.06-.1c-2.2-.69-4.38-1.46-6.54-2.23a3.61,3.61,0,0,0-3.84.49c-3.14,2.81-6.48,1.93-9.89.73a12.55,12.55,0,0,0-3.22-.75c-3.27-.24-5-1.66-5.77-4.89a9.25,9.25,0,0,0-.61-2c-1.3-2.55-1.74-5.37-2.65-8-1.1-3.22-.52-6.33.39-9.41,1.56-5.24,4.89-9.43,8.47-13.41a13.88,13.88,0,0,1,3.2-2.47,5.06,5.06,0,0,1,4.13-.52C290,614.63,293.76,614.07,297.39,614.12Zm-7.93,33.52a7,7,0,0,0,5.22-.86c1.52-.92,3.35-2,3.48-3.91.19-3-.05-6-.09-9.06a15,15,0,0,1,0-3.07c.46-2.41-.83-4.52-1-6.81,0-.33-.41-.67-.68-.95-.84-.85-1.72-1.66-2.55-2.52a5,5,0,0,0-4.26-1.66c-1.74.14-3.51-.17-4.74,1.56-.34.48-1.08.65-1.61,1a3.42,3.42,0,0,0-1.07.91c-1.55,2.69-3.27,5.26-3.59,8.52a29.91,29.91,0,0,0,.41,5c.18,2.8.34,5.52,2.68,7.58.61.53.73,1.8,1.36,2.09C285.12,646.39,286.85,648.57,289.46,647.64Zm224.12-19c.06.47.11.95.18,1.42A29.35,29.35,0,0,1,512,644a10.92,10.92,0,0,1-2,2.83c-.28.36-.8.58-1,1-2.22,3.87-5.92,5.87-9.68,7.85a4.37,4.37,0,0,1-2.94.46c-2.44-.39-5-.2-7.37-.79-2.95-.74-6.1-1.47-7.64-4.66-.12-.26-.35-.62-.57-.65-2.34-.28-2.78-2.4-3.84-3.91-.62-.89-1-2-1.66-2.83-3.08-4.23-3.46-8.83-1.88-13.65.87-2.65,2-5.22,3-7.83l.27-.67c1.94-5.2,5.33-8.66,11.09-9.31a7.44,7.44,0,0,0,1.87-.41c2.78-1,5.53-.39,8.28.14a7.82,7.82,0,0,0,1.4.31c2.69,0,4.65,1.45,6.39,3.29s3.85,3.49,5.09,5.63C512.17,623.14,513.74,625.62,513.58,628.6Zm-7.51,5.91a57.06,57.06,0,0,1-1.35-6,5.62,5.62,0,0,0-2.54-4.11c-1.35-1-2.57-2.13-3.91-3.14a5.68,5.68,0,0,0-2.25-1.23c-2-.33-4.12-.42-6.18-.58a1.21,1.21,0,0,0-.68.19c-2.53,1.51-4.65,3.4-5.49,6.36-.33,1.14-.58,2.31-.88,3.46-.86,3.24-1.39,6.42,1.41,9.11.25.24.27.72.42,1.08a12.37,12.37,0,0,0,8.68,8,8.25,8.25,0,0,0,7.12-1.4C504.53,643.55,505.84,639.34,506.07,634.51ZM444,628.64c.05.47.1.94.17,1.42a29.37,29.37,0,0,1-1.73,14,11,11,0,0,1-2.06,2.8c-.29.37-.79.59-1,1-2.21,3.88-5.95,5.84-9.68,7.83a4.29,4.29,0,0,1-2.95.44c-2.36-.38-4.83-.23-7.14-.76-3.07-.69-6.22-1.5-7.85-4.71-.13-.25-.37-.59-.6-.62-2.31-.32-2.76-2.43-3.81-3.94-.62-.9-1-2-1.67-2.83-3.06-4.23-3.45-8.83-1.85-13.65.88-2.65,2-5.23,3-7.83.06-.15.12-.3.17-.45,2-5.39,5.48-8.94,11.45-9.54a5.52,5.52,0,0,0,1.41-.29c2.85-1.15,5.67-.5,8.5.08a5.92,5.92,0,0,0,1.4.29c3.1-.15,4.93,2,6.92,3.8A33.24,33.24,0,0,1,440,619.1c1.09,1.31,2.55,2.44,2.48,4.46,0,.4.47.81.7,1.23C443.79,626,444.52,627.16,444,628.64Zm-7.52,5.77c-.47-2-1.09-4-1.36-6a5.49,5.49,0,0,0-2.42-3.93c-1.41-1-2.67-2.26-4.1-3.27a7,7,0,0,0-2.74-1.26,52.41,52.41,0,0,0-5.47-.48,1.57,1.57,0,0,0-.9.22c-2.46,1.47-4.52,3.32-5.38,6.17-.41,1.37-.71,2.77-1.06,4.16-.77,3-1.08,6,1.47,8.44.25.25.31.71.49,1,1,1.88,1.46,4.12,3.4,5.34a21.39,21.39,0,0,0,5.16,2.75c2.91.91,5.22,0,7.34-1.43C435,643.47,436.25,639.23,436.47,634.41ZM174.17,611c-2.84,1-5.62,2.83-8.92,1.45a1.63,1.63,0,0,0-2.17.94c-.52,1-1.29,1.82-.43,3a9.58,9.58,0,0,0,4.88,3.66c-1.55,5.68-3.21,11.2-5.16,16.58l-2.63-.22a76.82,76.82,0,0,1-6-13.19c-.38-1-.58-2.16-.88-3.23a2.1,2.1,0,0,1,1.09-2.78,4.4,4.4,0,0,0,.79-.54c1.25-1,1.32-2,0-2.87a6.39,6.39,0,0,0-2.62-1.09c-4.82-.81-9.68-.37-14.42-.41-2.54,4.21-2,5.5,2.43,6.46A5.1,5.1,0,0,1,144,622a12.93,12.93,0,0,0,.87,2,34.22,34.22,0,0,1,4.39,9.26c.71,2.61,1.49,5.2,2.25,7.8.09.3.24.59.35.88,1.06,2.75,2.16,5.48,3.14,8.25a2.89,2.89,0,0,1-.05,2,49.9,49.9,0,0,1-8.2,12.33,4.22,4.22,0,0,1-2.69,1.34,31.27,31.27,0,0,0-5.6,1.15c-1.94.6-2.81,2.53-2.4,4.66a3.87,3.87,0,0,0,3.41,2.91,51.28,51.28,0,0,0,5.68-.39,7.78,7.78,0,0,0,5.9-3.9c2.31-3.67,3.86-7.78,6.61-11.19a7.61,7.61,0,0,0,.63-1.28,26,26,0,0,1,2.53-4.83,26,26,0,0,0,4-7.4c1-2.6,1.73-5.29,2.76-7.86,2.71-6.82,5.59-13.58,8.44-20.35a2.5,2.5,0,0,1,1.07-1.2c1.61-.81,2.37-2.25,3.18-3.67C177.73,609.91,177.11,609.93,174.17,611ZM267.6,650.8c-.48,1.38-.89,2.55-1.33,3.83l-4.9,1.5a5.14,5.14,0,0,1-4.76-.8c-1.59-1.14-3.2-2.22-5.42-1.86a7.81,7.81,0,0,0-2.44.65,10.18,10.18,0,0,1-4,1.53c-1.84.07-3.75.67-5.63-.38a6.12,6.12,0,0,1-2.92-3.6c-.49-1.42-1.23-2.77-1.58-4.22a10.32,10.32,0,0,1,.92-7.86,2.93,2.93,0,0,1,1.56-1,8.7,8.7,0,0,0,3.77-2.85,18.9,18.9,0,0,1,2.51-2.47c1.6-1.32,3.41-2.43,4.88-3.88a56.07,56.07,0,0,0,4.05-5c-1.21-1.3-1.32-3.39-3.27-4.34a2,2,0,0,0-2-.19A43.45,43.45,0,0,0,242,623c-1.72,1.29-3.3,2.77-5.34,3.52-2.48-2.21-2.53-5,0-6.9a18.54,18.54,0,0,0,4.3-4.36,10.9,10.9,0,0,1,6.5-4.24,11.25,11.25,0,0,1,3.74.11c.61.06,1.18.5,1.8.62,3.49.7,5.24,3.39,7,6.07a4.78,4.78,0,0,1,.41,1.85,39.05,39.05,0,0,1,.6,7c-.16,5.26.34,10.54.59,15.81,0,.88.17,1.75.25,2.62a4.06,4.06,0,0,0,3.66,4C266.53,649.29,266.53,649.29,267.6,650.8Zm-15.18-17.2c-2.33,1.54-4.52,3.13-6.84,4.48-3.49,2-3.54,6.16-.34,8.61,1.85,1.41,3.93,1.21,5.88.18a4.19,4.19,0,0,0,2.59-4.41c-.12-1.25.3-2.56.1-3.78C253.56,637.12,254.07,635.35,252.42,633.6ZM131.86,652a9,9,0,0,0-1.85-1.11,4.07,4.07,0,0,1-2.69-3.62c-.08-.63-.29-1.25-.33-1.88-.32-4.93-.61-9.86-.91-14.79,0-.15,0-.31,0-.47,0-1.57.14-3.14.13-4.7,0-2.84-.36-5.64.19-8.53.45-2.37,0-4.93-.14-7.4a58.37,58.37,0,0,1,.51-14.58,22.63,22.63,0,0,0,.23-5.7c-.13-1.76-.74-2.08-2.4-1.36A16,16,0,0,0,121,590a24.37,24.37,0,0,0-2.92,3.08c-1.7,1.95-4.19,2.21-6.41,2.92a2.6,2.6,0,0,0-2,2.31c-.19,1,.81,2.08,2.06,2.45a12.87,12.87,0,0,1,2.45.92c1.5.81,2.5,1.86,2,3.85a9.84,9.84,0,0,0-.05,3.34,62.05,62.05,0,0,1-.14,14.35,5.67,5.67,0,0,0,.42,4c.22.37.41,1.07.22,1.33-1.29,1.78-.72,3.45.07,5.18a4.08,4.08,0,0,1,.15,1.41c.35,4.56-1.2,8.78-2.29,13.08-.14.56-.73,1-1.06,1.53-.93,1.46-2.84,2.32-2.73,4.56a31,31,0,0,1,3.18,1.52,2.57,2.57,0,0,0,2.92.17,5.27,5.27,0,0,1,4-.39,17.06,17.06,0,0,0,2.13.3c3.29.17,6.58.31,10,.47C133.92,653.73,133.81,653.31,131.86,652Zm316.67-33.89c-.82,2.63-.27,3.45,2.52,3.77a2.38,2.38,0,0,1,.71.07,6.17,6.17,0,0,1,2,1.06,13.92,13.92,0,0,1,1.55,2.38c1.69,2.7.74,6.09,2.32,8.82-.23,3.48.64,7-.5,10.47-.09.28-.17.71,0,.9.82,1,.39,2.14.21,3.22-.52,3.07-1,6.16-1.65,9.2-.93,4.13-1.93,8.27-4.1,12-1.23,2.09-3.13,3.82-3.06,6.51,0,.21-.23.42-.36.62a2.14,2.14,0,0,0,.12,2.85,2.36,2.36,0,0,0,2.84.58,10.42,10.42,0,0,0,6-5.84,31.32,31.32,0,0,1,3.65-6.95c4-5.5,5.52-11.85,6.13-18.48.14-1.51.19-3,.25-4.55.28-7.19.79-14.37.14-21.57a26.59,26.59,0,0,0-1.92-8.85c-.28-.6-.86-1.45-1.34-1.48a11.61,11.61,0,0,0-4.45.4c-1.36.51-2.59,1.3-4.06,1.73a58.73,58.73,0,0,0-6.85,2.92C448.73,617.63,448.6,617.84,448.53,618.06ZM107.68,651.74c-2.52.17-4.39-1.13-6.41-2a2.85,2.85,0,0,1-1.87-2.51c-.51-4.42-1.94-8.77-.91-13.29a1,1,0,0,0,0-.48c-.84-3.65-.13-7.3,0-11,.07-2.46-.09-4.93-.23-7.39a2.29,2.29,0,0,0-2.56-2.29c-3.26.1-6.53.3-9.78.66-1.52.17-2.86,2.25-2.75,3.87a8.17,8.17,0,0,0,1.12-.18c2.14-.63,2.75-.36,3.67,1.7a7.38,7.38,0,0,1,.62,1.8c.53,3.23,1.15,6.44,1.47,9.69.42,4.32-.44,8.59-1,12.85-.57,4-.53,4.09-4.42,5.47a4.4,4.4,0,0,0-3.32,4.12c-.19,2.06.23,2.76,2.25,2.63,2.3-.14,4.59-.56,6.89-.77a4.94,4.94,0,0,1,2.52.21c3.86,1.92,7.86,1.82,11.94,1.11.92-.16,1.84-.28,3.17-.48C107.91,654.22,107.8,653,107.68,651.74ZM90.83,590.65a3,3,0,0,0-1.68.66A10.64,10.64,0,0,0,86,597.12a4.7,4.7,0,0,0,4.51,5.34c2.47-.06,4.93-.4,7.39-.67a2.57,2.57,0,0,0,1.29-.51c2.31-2,2.54-4.69.65-7.14-.19-.26-.41-.49-.6-.75-1.52-2-3.2-3.63-5.57-2.77A23.19,23.19,0,0,0,90.83,590.65Zm375.91,7.91c0-.16.07-.32.11-.47.74-2.9-.45-6.1-2.71-7.27-2.53-1.31-6.83-.43-8.51,1.87-1.26,1.72-2.52,5.12-1.05,7.38s3.75,2.76,5.93,2.91C464.66,603,465.7,602.25,466.74,598.56ZM326.44,433c.14-.17.19-.31.33-.46,1-1.34,1.83-2.74,2.8-4.07s2-2.28,2.18-4.12,1.51-3.57,2.34-5.33c.33-.71.67-1.4,1-2.09,1.14-2.11,2.69-4.11,3.35-6.36a37.66,37.66,0,0,0,1.12-8.37c.15-2.73-1-5.24-1.87-7.8-.61-1.87-1.15-3.76-1.71-5.59,1.67-1,3.34-1.4,4.79-2.49.94-.71,1.62-1.91,2.6-2.2,2.76-.83,4.75-3.36,7.86-3.37.45,0,.91-.58,1.35-.93,1.22-1,2.29-2.38,3.68-2.87,1.65-.59,2.26-2.38,3.95-2.75.33-.07.59-.51.87-.79.77-.76,1.48-1.6,2.31-2.29,1.8-1.51,4.32-2.07,5.59-4.28a.7.7,0,0,1,.39-.25c2.9-.93,5.15-3.21,8.13-4a2.73,2.73,0,0,0,1.46-.75c1.75-2.24,5.06-2.76,6.2-5.69.15-.38.86-.55,1.77-1.1-.72,1.79-1.24,3.17-1.82,4.51-1.35,3.1-2.76,6.17-4.08,9.28a21.16,21.16,0,0,0-2,8.73,13.49,13.49,0,0,1-.46,3.26c-.94,4.08-1.88,8.14-1.43,12.4a34.32,34.32,0,0,1-.13,5,25.65,25.65,0,0,0-.19,4.7c.61,4.25,1.38,8.48,2.24,12.69.5,2.48,1.46,4.87,1.91,7.35a80.72,80.72,0,0,1,1.33,10.35,16.87,16.87,0,0,1-1.16,7.7c-.63,1.45-1.17,2.94-1.81,4.39a41.17,41.17,0,0,1-1.86,3.84c-1.6,2.77-3.86,5.12-5.14,8.11a3.2,3.2,0,0,1-1.3,1.38c-2.35,1.37-3.77,3.7-5.77,5.41-1.15,1-1.77,2.71-3.58,2.89l-3.37,3.73-.05,0c.52-.05,1.13.06,1.52-.19,2-1.23,3.88-2.54,5.79-3.85a24.55,24.55,0,0,0,2.83-2.12c2.7-2.51,5.21-5.25,8.05-7.59,2.23-1.83,3.88-4.15,5.92-6.12,1.54-1.49,2.5-3.59,3.61-5.48a6.13,6.13,0,0,1,2.89-2.66c2.17-1,4.53-1.83,6.28-3.34,2.85-2.46,6.4-3.84,9.12-6.43,1.34-1.27,3.31-1.78,4.25-3.6.32-.6,1.08-1,1.93-1.71,0,.71.13,1.13,0,1.4a13.44,13.44,0,0,1-1.69,2.55,4.12,4.12,0,0,0-.86,2.08,9.11,9.11,0,0,1-1.86,4.11,9,9,0,0,0-2.13,3.83,35.43,35.43,0,0,1-1.34,4.24,57.43,57.43,0,0,1-2.87,5.36c-2.19,3.71-2.67,7.93-3.53,12-1,4.85-1.55,9.82-2.37,14.72a12,12,0,0,1-1.16,3.62,57.39,57.39,0,0,0-3.25,8.83c-.75,2.19-1.18,4.61-2.91,6.32-1,1-11.34,9.68-11.46,10.94a3.73,3.73,0,0,1-1.28,2.52c-.9.59-12.95,9-13.84,9.6-2.24,1.57-18.11,11-20.88,10.88-2.51,1.5-7.9,3-10.7,4.15-.57.23-.86,1.16-1.28,1.76a32.85,32.85,0,0,0,5.55-1.85c.74-.3,6.21,0,7-.06,2.09-.21,17.94-4.49,20-5,1.61-.41,13.44-7.39,15-8s5.51-1.35,7-2,6.72-5.12,8-6c1.62-1.12,9.43-8.81,11-10,2.43-1.86,2.53-3.2,5-5,1.2-.89,2.66-2.45,4-3a9.81,9.81,0,0,0,4-3c.71-.8,3-1.5,4-2,3-1.57,4.89-3.84,7.93-5.27,1.82-.86,3.29-2.37,5.41-2.72.64-.1,1.19-.86,1.72-1.38,1.21-1.2,2.39-2.42,3.56-3.65,1-1,1.95-2.05,2.84-3.14s1.38-2.67,3.1-3c.26,0,.48-.4.71-.62,2.33-2.3,4.29-5,7.49-6.33a1.63,1.63,0,0,0,.87-.78,5.87,5.87,0,0,1,2.64-2.64,29.09,29.09,0,0,0,3-2.34c3.26-2.94,6.5-5.92,9.74-8.9a7.32,7.32,0,0,0,1.29-1.38c.83-1.32,1.53-2.73,2.39-4a19.28,19.28,0,0,1,2.09-2.52c1.22-1.29,2.58-2.47,3.73-3.81a22.28,22.28,0,0,0,1.27-2.43c1.87-2.87,4.7-5.09,5.78-8.52.08-.27.44-.45.66-.67,1.49-1.52,3.06-3,4.42-4.58,1.11-1.32,1.75-3.06,3-4.26,2.88-2.87,4.16-6.5,5.58-10.14a29.6,29.6,0,0,1,3.33-6.26c1.52-2.16,3.44-4,5.15-6.07a10.26,10.26,0,0,0,1.9-2.65,22.65,22.65,0,0,1,2.85-5c1-1.46,1.93-3,2.84-4.56a4.57,4.57,0,0,0,.29-1.13,9.45,9.45,0,0,1,.51-1.69c1.85-3.66,4.75-6.88,4.66-11.35,0-.43.36-.87.57-1.3a28.68,28.68,0,0,0,2-4.28,55,55,0,0,1,2.88-7.38c.63-1.45,1.27-2.91,1.78-4.4.41-1.2.65-2.46.94-3.7.35-1.52.71-3.05,1-4.58s.25-2.81.63-4.14c.79-2.74,1.93-5.36,2-8.29a38.76,38.76,0,0,1,1-5.83c.59-2.89,1.57-5.73,1.81-8.64s1.46-5.55,1.93-8.39,1.44-5.32,2.08-8c.83-3.44,1.65-6.86.61-10.47a13.88,13.88,0,0,1,0-4c.05-1.79.26-3.58.17-5.37a15.36,15.36,0,0,1,.13-4.92,10.54,10.54,0,0,0,.16-4c-.54-4.16.29-8.23.64-12.33a66,66,0,0,0,.61-6.85c-.08-4.45-.72-8.89-.58-13.32.14-4.64-1.24-8.92-2.1-13.33-.66-3.42-1.51-6.8-2.12-10.23-.38-2.11-.24-4.32-.74-6.39-.79-3.22-1.91-6.37-2.91-9.53-1.26-3.93-2.62-7.83-3.79-11.78-1.46-5-2.67-10-4.18-14.93-1.12-3.65-2.44-7.25-3.85-10.79-1.33-3.32-2.79-6.6-4.4-9.79-1.68-3.35-3.58-6.58-5.41-9.85s-3.51-6.45-5.45-9.56c-3.89-6.23-8-12.33-11.86-18.56A201.22,201.22,0,0,0,474,89.84a260.1,260.1,0,0,0-53-47.23c-7.08-4.76-14.48-9-21.74-13.56-2.23-1.38-4.41-2.88-6.73-4.1-3.74-2-7.52-3.83-11.37-5.56-3.4-1.54-6.87-3-10.4-4.21-4-1.38-8.08-2.47-12.13-3.7a37.1,37.1,0,0,0-5.25-1.57c-5.94-.88-11.49-3.13-17.28-4.54-2.77-.68-5.48-1.61-8.25-2.31-2.53-.63-5.18-.86-7.62-1.69s-4.06.06-5.82,1.45c-2,1.58-2.22,4.2-3.8,6.06a56.4,56.4,0,0,0-3.67,5.73c-.87,1.34-1.91,2.58-2.73,3.95-1,1.69-1.56,3.74-2.85,5.14-3.14,3.45-4.58,7.63-6,11.9-1.27,3.73-2.81,7.37-4.24,11.06a32.47,32.47,0,0,0-2.5,8.78,24.63,24.63,0,0,1-1.39,5.28c-.7,2.1-1.66,4.11-2.31,6.22a33.3,33.3,0,0,0-1.19,5.59c-.29,2.35-.31,4.73-.48,7.1a21.08,21.08,0,0,1-.39,3.56A65.68,65.68,0,0,0,281,95.5a37.5,37.5,0,0,1-.37,4.24c-.59,3.42-1.3,6.83-1.93,10.25-.25,1.3-.34,2.63-.61,3.93-.59,2.94-.64,6-1.71,8.86-.77,2.07-1.37,4.37-.46,6.72a5.53,5.53,0,0,1,0,2.59c-.17,1.09-.65,2.14-.75,3.23-.33,3.63-.5,7.28-.85,10.91-.22,2.24.35,4.61-1,6.69a1.7,1.7,0,0,0-.14.69c-.25,2.26-.16,4.62-.83,6.76a11.14,11.14,0,0,0,.39,6.77,14.32,14.32,0,0,1,.56,7.23c-.89,4-.31,7.88,0,11.77a29.38,29.38,0,0,1-.38,7.56,38,38,0,0,0-.43,4,11.73,11.73,0,0,1-.06,2.79,32.06,32.06,0,0,0-1.12,8.7q-.19,4.24-.43,8.49c0,.06-.27.1-.59.22a11.88,11.88,0,0,1-.28-1.81c0-2.6-.05-5.2,0-7.8.15-5.38-.65-10.72-.42-16.12a44.44,44.44,0,0,0-1.49-13.23,106.56,106.56,0,0,1-2.26-12.33c-.7-4.95-1.28-9.92-1.69-14.89-.31-3.7-.28-7.42-.39-11.14,0-1.17.09-2.36,0-3.53-.35-4.34-.77-8.67-1.16-13a46.56,46.56,0,0,0-.67-6.6,66.75,66.75,0,0,1-1.72-12.72c0-.63-.11-1.26-.14-1.9a54.84,54.84,0,0,0-2.5-12.34c-1.47-5.09-2.82-10.22-4.18-15.34-.72-2.68-1.48-5.37-2-8.1-.82-4.5-1.35-9.05-2.2-13.54-.61-3.27-1.45-6.5-2.31-9.72-1.27-4.76-2.24-9.58-4.16-14.21-2.77-6.66-5.73-13.15-10-19a54.69,54.69,0,0,0-8.44-9.47,3.62,3.62,0,0,0-3.26-1c-2.7.47-5.44.7-8.12,1.28-3.28.72-6.7.52-9.93,1.64a28.31,28.31,0,0,1-3.47.64,21.73,21.73,0,0,0-2.77.74A56.88,56.88,0,0,1,191,6.49a25.42,25.42,0,0,0-8,3.2,27.12,27.12,0,0,1-6.31,2.49c-1.33.43-2.77.48-4.14.81-.81.2-1.58.92-2.36.89-2.86-.11-4.8,1.47-6.72,3.23a27.52,27.52,0,0,1-3.08,2.52,34.24,34.24,0,0,0-3.61,2.18,10.8,10.8,0,0,1-5.08,2.33,13.64,13.64,0,0,0-4.89,1.68,90.49,90.49,0,0,1-8.94,5.42c-2,1.11-3.73,2.7-5.79,3.6-1.21.53-1.8,1.69-3,2.08a3.21,3.21,0,0,0-2.46,2.48A.93.93,0,0,1,126,40c-1.86-.2-3,1.31-4.66,1.79-1.23.36-2.2,1.59-3.43,1.94a8.68,8.68,0,0,0-3.57,2.1c-1.92,1.79-3.86,3.57-5.77,5.38-1,1-2,2.05-3,3s-2.37,2-3.59,2.91c-.74.57-1.52,1.09-2.3,1.61-1.48,1-3.07,1.83-4.44,2.95-2.44,2-4.74,4.15-7.12,6.21-.71.61-1.58,1-2.23,1.71A69.21,69.21,0,0,0,80,75.72c-1.39,1.8-3.39,2.94-4.62,5-1,1.71-3,2.83-4.58,4.23-2.21,2-5,3.44-6.12,6.44-.07.18-.36.27-.53.42-.72.63-1.47,1.24-2.14,1.93-1.55,1.59-2.82,3.56-4.62,4.76a26.3,26.3,0,0,0-7.17,7.09,17,17,0,0,1-1.37,2,28,28,0,0,0-5.23,8.8c-.89,2.11-2,4.14-3,6.15-.71,1.33-1.69,2.53-2.35,3.88-1.27,2.64-2.4,5.36-3.59,8-.39.85-.83,1.68-1.16,2.55-.84,2.28-1.57,4.61-2.48,6.87-.52,1.3-1.38,2.47-2,3.75A6.88,6.88,0,0,1,27,150.65a6.22,6.22,0,0,0-1.64,2.57,50.11,50.11,0,0,1-4.56,7.91,13.93,13.93,0,0,0-1.82,3.31c-.8,2.46-1.4,5-2,7.49-.4,1.56-.72,3.14-1.08,4.7-.3,1.36-.55,2.73-.92,4.07-.82,3-1.58,5.94-2.6,8.83s-2.3,5.54-3.43,8.33a27.34,27.34,0,0,0-1.77,4.87c-.86,4.32-1.38,8.71-2.24,13a126.27,126.27,0,0,0-1.82,15c-.16,2.12-.07,4.26-.21,6.39-.21,3.38-.51,6.76-.81,10.14-.24,2.72-.46,5.45-.8,8.15-.26,2-.78,4-1,6-.47,3.72.06,7.44.19,11.15,0,1.24-.06,2.48,0,3.71.18,2.37.41,4.73.72,7.09.21,1.63.57,3.25.86,4.87.35,2,.81,3.88,1,5.83.44,4.34.51,8.72,1.14,13s1.79,8.36,2.68,12.55S8.49,327.89,9.34,332c.6,2.88,1.05,5.81,1.86,8.64,1.46,5,3.38,9.95,4.69,15a95.79,95.79,0,0,0,8.64,21.94c1.11,2,2.09,4.13,3.2,6.16,2,3.63,4,7.28,6.07,10.84,2.37,4,5,7.79,7.3,11.8a191.75,191.75,0,0,0,23.21,32.84c14.3,16,29.54,31.07,47.07,43.6,5.71,4.09,11.46,8.14,17.35,12,4.07,2.66,8.37,5,12.6,7.36,6.84,3.89,19.34,11.21,26.63,14a6.91,6.91,0,0,0,1.09.26c.14-.17.29-1.35.43-1.53a8.13,8.13,0,0,1-1.43-.87c-6.47-4.4-16.47-11.4-20.47-23.11a54.69,54.69,0,0,1-4.26-11.63c-1-3.41-1.24-7-2.06-10.47a66.86,66.86,0,0,0-2.62-8.43c-1.11-2.89-2.49-5.69-3.81-8.5-3.16-6.8-6.23-13.65-10.59-19.82a6.76,6.76,0,0,1-.47-1.24c1.72,1,3,1.85,4.39,2.64A134.91,134.91,0,0,0,145.25,442a11.5,11.5,0,0,1,4.92,3.24,116.57,116.57,0,0,0,21.32,21.31c.78.62,1.62,1.14,2.43,1.71l.29-.39-2-1.91c-5-4.78-9.87-9.6-13.21-15.73-.88-1.62-1.81-3.21-2.53-4.9-1.15-2.68-2-5.49-3.25-8.14-1.09-2.39-.9-5-1.38-7.42a6.58,6.58,0,0,1,1-5.54c.42-.31.48-1.14.67-1.75a18.35,18.35,0,0,1,.73-2.49,38.44,38.44,0,0,0,3.58-11.45c.22-1.65.11-3.35.42-5,.87-4.62.89-9.29,1.14-13.94a43,43,0,0,0-.06-6.9,70.35,70.35,0,0,0-1.46-8.11,59.35,59.35,0,0,0-1.84-6.41c-.81-2.4-2.08-4.63-2.49-7.18a11.69,11.69,0,0,0-.76-2.25c-.56-1.41-1.16-2.8-1.74-4.2l.51-.39a18.46,18.46,0,0,0,1.47,1.9,164.68,164.68,0,0,0,20.86,17.64c8.14,5.65,16.55,10.9,24.84,16.33a5.53,5.53,0,0,1,.66.54c-.78,2.44-1.47,4.68-2.2,6.91-.81,2.46.06,4.94.14,7.37.09,2.78,1.24,5.56,2.15,8.26a121.33,121.33,0,0,0,7.36,17.9,20.57,20.57,0,0,0,3,4.54,28.45,28.45,0,0,0-1-3.71c-1.08-3.57-2.79-6.92-3.3-10.68-.56-4.07-1.51-8.08-1.95-12.15-.2-1.87-.24-3.95,1.28-5.61.47-.51.48-1.42.7-2.15.13-.44.25-.88.4-1.31.57-1.66,1.15-3.3,1.74-4.95A4.61,4.61,0,0,1,208,394c2.73-4.21,4.77-8.87,8.22-12.61.15-.16.16-.44.28-.64,1.86-2.89,3.08-6.08,5.31-8.83a41.83,41.83,0,0,1,8.21-8.07,19.74,19.74,0,0,0,2.32-2.34c.72-.72,1.46-1.43,2.19-2.15.9-.88,2.13-1.6,2.67-2.67,2.26-4.45,6.2-7.52,9.16-11.39,1.15-1.5,2.85-2.68,3.9-4.38.92-1.51,1.84-3,2.84-4.49a10.43,10.43,0,0,0,.71-1.3c1.38-2.65,1.15-5.73,2.56-8.39,1.16-2.19,1.87-4.57,3.7-6.41a10.77,10.77,0,0,0,2.8-4c.74-2.33,2.2-4.27,3.13-6.5a31.88,31.88,0,0,0,2.49-7.81c.17-1.2.53-2.37.9-4,.31.73.5,1.05.6,1.39.61,2.22,1.17,4.45,1.83,6.65.41,1.38,1.12,2.68,1.4,4.07a56.34,56.34,0,0,0,5.28,14c2.83,5.72,5.33,11.57,8.6,17.1a129.23,129.23,0,0,0,12.93,17.83c4.24,5,8.93,9.59,13.51,14.29,5.44,5.57,10.47,11.42,13.88,18.52,2.11,4.38,4.18,8.79,4.84,13.64.43,3.18.76,6.44-.22,9.61s-2,6.29-3,9.42a9.36,9.36,0,0,1-.94,2.28,15.52,15.52,0,0,0-2.12,5.81Z"/></g></g></svg>