<svg xmlns="http://www.w3.org/2000/svg" viewBox="0 0 1953.91 536.55"><title>LPD Sm Horizontal Black</title><g id="Layer_2" data-name="Layer 2"><g id="Layer_2-2" data-name="Layer 2"><path d="M1469.09,344.28c.73-8.37,2.13-10.55,8.4-12.28,7.16-2,9.88-7.63,11.66-13.83,1.5-5.2,2.24-10.63,3.26-16a5.39,5.39,0,0,0-.13-1.95c-3.34-16.32-1.87-32.82-1.74-49.25.1-13.83.8-27.66,1-41.49.19-12.26-6-20.64-17.78-24.62-2.25-.76-4.6-1.3-6.75-2.27-3.89-1.74-3.77-5.46-4.13-8.86,5.12-3.16,10.06-6.3,15.09-9.3,2.23-1.33,4.48-2.9,7.36-1.58a2.78,2.78,0,0,0,1.92.13c12.58-4.66,24.83-1.22,37.42.55,17.66,2.47,34.74,7,51.84,11.64a119.45,119.45,0,0,1,33.7,14.65c11,7,19.61,15.85,23.34,29,2.72,9.62,6.74,18.86,10.19,28.27.23.61.89,1.21.83,1.76-.85,8.68-.1,18-3.1,25.86-4.73,12.42-12,23.89-18.22,35.74-1.43,2.71-3,5.33-4.66,8-3.9,6.32-7.72,12.38-15.93,14.37-4.73,1.14-8.79,4.85-13.48,6.41-6,2-12.34,3-18.54,4.4a27,27,0,0,0-3.87.75c-8.63,3.37-17.43,2.43-26.44,2-22.13-1.06-44.3-1.19-66.46-1.72C1472.43,344.64,1471,344.44,1469.09,344.28Zm69.67-161.49c-3.46,0-5.89.15-8.29,0-4.4-.34-7,1.87-8.68,5.64a21.53,21.53,0,0,0-1.94,5.58c-1.33,11.32-2.5,22.67-3.66,34a5.62,5.62,0,0,0,.49,2.56c4.35,10.64,2.58,21.14-.81,31.55a16.46,16.46,0,0,0,0,11.45c1.5,4.05,2,8.53,2.51,12.87,1,8.89,1.56,17.69,4.4,26.42,2.61,8,5.4,14.34,14.22,17.2,5.79,1.89,11,3.65,16.88.77a20.72,20.72,0,0,1,4.44-1.19c6.07-1.41,12.17-2.73,18.21-4.26a15,15,0,0,0,4.74-2.23c8.39-5.83,15.84-13,20.22-22,4.64-9.55,7.37-20.07,10.46-30.31,2.55-8.43,1.54-17-.79-25.35-3.64-13.13-10.53-24.55-18.44-35.45-1.29-1.78-3.13-3.39-3.75-5.38-1.88-6.1-7.14-8.66-12.12-10a73.45,73.45,0,0,1-15.09-6.17C1554.18,184.55,1546.37,182,1538.76,182.79Z"/><path d="M1180.93,211.06c.79,7.49-2.23,16-5.76,24.26a34.32,34.32,0,0,1-13.24,15.06A123,123,0,0,1,1149.7,258c-3.68,1.83-7.8,2.79-11.72,4.17a31.88,31.88,0,0,0-4.75,1.87c-6.51,3.55-12.28.51-13.22-6.81-.59-4.62.73-7.74,4.73-10.51,6.12-4.23,11.78-9.14,17.53-13.9,5.2-4.31,6.84-9.88,5.63-16.53-2.63-14.46-9.93-25.68-22.7-33.07-6-3.47-11.93-1.19-14,5.43-2.13,6.91-4,13.92-5.56,21-.78,3.49-1.91,7.11.83,10.69.9,1.17.39,4-.27,5.68-2.53,6.56-.62,12.72,1.53,18.75,2.22,6.2,4.77,12,2.43,19-1,3.11,0,6.92.07,10.41.17,5.19.43,10.38.59,15.57.23,7.89.24,15.8.7,23.68a16.56,16.56,0,0,0,2.32,6.78c1.79,3.18,4.14,3.57,7.79,2.63a43.17,43.17,0,0,1,10.23-1.65c3.83,0,6.54,1.94,7.44,6.09,1.15,5.28,2.79,10.47,3.9,15.76,1,4.89.16,5.67-5.09,5.09-5.67-.63-11.34-1.31-17-2.14a87.42,87.42,0,0,0-32.08.86c-5.07,1.13-10.12,2.52-15.55,1.14-2.1-.53-4.68.75-7,1.26-4.63,1-8.88.25-11.64-3.81-3.8-5.58-3.8-9.93-.22-14.43a10.93,10.93,0,0,1,4.68-3.11c11.76-4.25,15.64-9.6,16.22-21.91.4-8.54,1.38-17.06,1.84-25.6.38-7.19.36-14.4.52-21.59a2.08,2.08,0,0,0-.05-.66c-3-9.66-.35-19.62-1.6-29.41-1.16-9.08-1.39-18.27-2-27.41a28.66,28.66,0,0,1,.08-5.24c.75-6.12-1.16-9.39-7.16-11.32-5.79-1.86-11.67-3.45-17.51-5.17-2.29-.67-4.6-1.05-5.58-3.91-1.72-5-1.18-7.47,3.68-9.57a31.09,31.09,0,0,1,10.74-2.72c9.54-.39,19.1-.22,28.66-.19,10.54,0,21.09.11,31.63.27,4.17.06,8.33.45,12.5.57a43.89,43.89,0,0,1,23.42,7.81c3.62,2.39,7.83,3.89,11.74,5.85,1.53.77,3.33,1.38,4.41,2.59C1178.53,188.9,1181.64,198,1180.93,211.06Z"/><path d="M618.14,178.83c-2.45-9.49-1.07-12.48,6.87-16.55,2.54-1.29,5-2.75,7.49-4.13,3.08-1.7,6.59-2.42,9.36-.32,8.5,6.41,18.12,6.11,27.72,4.91a52.07,52.07,0,0,1,20.12,1.68c12,3.2,14.61,9.24,9.7,19.35-4.95,1.8-9.15,3.35-13.36,4.85a12,12,0,0,1-3.76,1.07c-6.29,0-9.68,4.05-11.69,9.09-1.59,4-2.94,8.49-2.74,12.69A275,275,0,0,0,671,243.52c2.47,14.91,2.13,29.67.29,44.58-1.1,8.9-1.08,17.94-1.71,26.91-.24,3.49,1.13,5.7,4,7.57,7.67,4.9,15.74,8.63,24.83,10,13.52,2.05,30.41-6.34,36.61-18.46a16.62,16.62,0,0,0,2.05-6.2c.43-6.75,4.4-11.82,7.76-17.15a13.78,13.78,0,0,1,4.85-4.3c2.71-1.52,4.56-.49,5.1,2.71,1.93,11.46,3.88,22.93,5.52,34.43a40.22,40.22,0,0,1-.13,10.51c-.87,6.8-4.92,10.63-11.69,11.24-4.59.41-9.22.33-13.81.68a112.7,112.7,0,0,0-14.37,1.51c-12.09,2.49-24.07.14-36.1-.25-3.5-.11-7-.51-10.51-.7a15.16,15.16,0,0,0-8.15,1.55c-3.87,2-8.36,2.6-12.67.47-2.82-1.39-5.6-2.24-8.61-.26a4.05,4.05,0,0,1-3.2.3c-7.14-2.74-14.4-2.11-21.78-1.43-3.34.31-5.38-2.51-6.95-5.26s-1.55-5.45.69-7.88c3.73-4,8-7.15,14.08-7.94,4.53-10.9,9.35-21.91,9.33-34.3a9.36,9.36,0,0,0-.12-2.6c-3.36-11.41-2.52-23.05-2.09-34.68.18-4.83.16-9.66.41-14.49a34.88,34.88,0,0,1,1.08-5.68c.18-.83,1-2.07.75-2.35-4-4.21-.54-9-1.08-13.46-.62-5-.61-10.07-.74-15.12-.12-4.83,0-9.67-.12-14.49-.11-4.38-4.7-9.17-9.08-9.61C623.06,179.13,620.68,179,618.14,178.83Z"/><path d="M1358.85,235.73c3.63-5.85,3.22-11.43,2.22-17.14-.51-3-.68-6-1-9-.1-1.09,0-2.19-.07-3.29-.47-11.86-2.34-14.29-13.62-17.79-6.17-1.91-8-5.59-4.06-10A66.58,66.58,0,0,1,1376,157.89a6,6,0,0,1,1.91.15c3.53,3.63,5.12,7.86,3.25,12.59-3.09,7.8,0,15.57,0,23.34,0,2.64,2.31,5.36.1,8.33a2.38,2.38,0,0,0,.45,2.29c3,2.42,1.44,5.29.74,7.87-1.18,4.36-3.69,8.49-.63,13.13.57.87-.15,2.55-.21,3.86-.45,9.87-1.11,19.73-1.25,29.59a54.61,54.61,0,0,0,1.51,14.33c1.2,4.61,1,9.08.89,13.67-.19,10.31-.56,20.64-.24,30.94.16,5.18,1.53,10.36,2.64,15.47.76,3.49,2,6.87,3.24,10.86-2.9,2.3-5.91,5.14-9.37,7.21-1.37.81-3.87.27-5.66-.29-6-1.88-12-4-18-6.12-3.79-1.36-7.49-1.38-10.54,1.35-8.61,7.71-17.78,5.3-27.17,2a34.54,34.54,0,0,0-8.85-2.08c-9-.64-13.75-4.54-15.83-13.42a24.53,24.53,0,0,0-1.68-5.54c-3.57-7-4.78-14.76-7.28-22.09-3-8.85-1.44-17.4,1.07-25.85,4.29-14.4,13.42-25.91,23.25-36.85a38.31,38.31,0,0,1,8.81-6.78,13.9,13.9,0,0,1,11.34-1.43C1338.59,237.12,1348.9,235.58,1358.85,235.73Zm-21.78,92.07a19.32,19.32,0,0,0,14.36-2.37c4.15-2.51,9.18-5.37,9.54-10.74.54-8.25-.12-16.57-.24-24.87,0-2.82-.44-5.72.08-8.45,1.26-6.62-2.29-12.4-2.83-18.69-.08-.92-1.12-1.85-1.88-2.62-2.29-2.34-4.7-4.57-7-6.91-3.22-3.28-6.82-5-11.69-4.58s-9.63-.45-13,4.3c-.93,1.3-3,1.78-4.42,2.75a9.15,9.15,0,0,0-3,2.49c-4.24,7.38-9,14.45-9.84,23.42-.48,4.76.83,9.08,1.13,13.62.49,7.68.94,15.16,7.34,20.81,1.67,1.47,2,5,3.76,5.75C1325.17,324.37,1329.92,330.37,1337.07,327.8Z"/><path d="M1952.74,275.5c.16,1.3.29,2.61.48,3.91,1.94,13.24-.39,26-4.72,38.43-1,2.89-3.6,5.25-5.58,7.76-.8,1-2.21,1.6-2.82,2.67-6.09,10.63-16.27,16.13-26.58,21.56a11.89,11.89,0,0,1-8.08,1.27c-6.71-1.08-13.74-.55-20.26-2.18-8.09-2-16.75-4-21-12.8-.34-.71-1-1.7-1.58-1.78-6.42-.77-7.64-6.6-10.53-10.74-1.72-2.46-2.81-5.36-4.57-7.78-8.47-11.6-9.49-24.26-5.16-37.49,2.39-7.29,5.5-14.34,8.29-21.51.24-.61.5-1.21.73-1.83,5.33-14.28,14.64-23.79,30.47-25.58a21.16,21.16,0,0,0,5.13-1.12c7.66-2.9,15.2-1.09,22.76.39a23.07,23.07,0,0,0,3.85.84c7.37.1,12.77,4,17.56,9s10.55,9.61,14,15.49C1948.87,260.51,1953.18,267.31,1952.74,275.5Zm-20.63,16.24c-1.29-5.46-3-10.87-3.72-16.41-.62-5.08-3-8.43-7-11.29-3.72-2.67-7.07-5.86-10.74-8.61-1.88-1.41-4-3-6.19-3.39-5.6-.89-11.3-1.15-17-1.59a3.41,3.41,0,0,0-1.86.52c-7,4.14-12.77,9.33-15.09,17.47-.9,3.14-1.58,6.35-2.42,9.51-2.36,8.9-3.82,17.63,3.88,25,.69.67.75,2,1.14,3,4.4,11.17,11.76,18.55,23.85,21.92,7.75,2.15,13.92-.13,19.56-3.84C1927.88,316.58,1931.48,305,1932.11,291.74Z"/><path d="M1761.56,275.62c.16,1.27.3,2.58.48,3.88,1.88,13.24-.38,26-4.76,38.43-1,2.88-3.65,5.21-5.64,7.71-.8,1-2.18,1.62-2.79,2.7-6.06,10.68-16.35,16.05-26.6,21.53a11.73,11.73,0,0,1-8.1,1.2c-6.48-1.05-13.25-.64-19.61-2.08-8.42-1.91-17.09-4.13-21.56-13-.35-.69-1-1.61-1.63-1.7-6.37-.86-7.6-6.66-10.48-10.81-1.71-2.47-2.83-5.35-4.59-7.78-8.4-11.62-9.47-24.26-5.07-37.5,2.41-7.28,5.5-14.35,8.28-21.51l.48-1.23c5.42-14.81,15-24.57,31.45-26.2a14.28,14.28,0,0,0,3.85-.81c7.84-3.15,15.6-1.36,23.37.22,1.29.26,2.59.88,3.85.82,8.51-.44,13.53,5.46,19,10.42a90.93,90.93,0,0,1,9,9.44c3,3.62,7,6.73,6.83,12.27,0,1.1,1.29,2.22,1.92,3.37C1761,268.31,1763,271.55,1761.56,275.62Zm-20.66,15.85c-1.28-5.46-3-10.87-3.73-16.41a15,15,0,0,0-6.63-10.78c-3.87-2.85-7.35-6.23-11.27-9a19.45,19.45,0,0,0-7.54-3.46,147,147,0,0,0-15-1.32,4.57,4.57,0,0,0-2.48.6c-6.75,4.05-12.4,9.13-14.76,17-1.14,3.76-2,7.61-2.92,11.42-2.12,8.33-3,16.41,4,23.19.71.69.87,1.94,1.36,2.88,2.71,5.16,4,11.31,9.33,14.68,4.5,2.86,8.72,5.84,14.18,7.54,8,2.5,14.35-.06,20.15-3.92C1736.89,316.36,1740.31,304.71,1740.9,291.47Z"/><path d="M1037.05,231.22c-2.21,3.89-4.3,7.87-8.75,10.09a6.89,6.89,0,0,0-2.94,3.29c-7.82,18.59-15.73,37.16-23.18,55.91-2.81,7.06-4.8,14.43-7.56,21.57-2.87,7.4-6,14.16-11,20.33-3.09,3.79-4.7,8.8-7,13.27a18.91,18.91,0,0,1-1.74,3.52c-7.53,9.36-11.79,20.67-18.15,30.75-4.1,6.51-9.21,9.74-16.2,10.71a137.61,137.61,0,0,1-15.6,1.06c-4,.11-8.6-4-9.36-8-1.14-5.87,1.26-11.17,6.58-12.82a89.21,89.21,0,0,1,15.37-3.16,11.44,11.44,0,0,0,7.39-3.67c9.5-10,16.43-21.67,22.55-33.87a7.82,7.82,0,0,0,.13-5.56C964.91,327,961.9,319.53,959,312c-.31-.81-.72-1.59-1-2.42-2.09-7.14-4.23-14.26-6.2-21.42-2.53-9.2-7-17.45-12.05-25.44a34.41,34.41,0,0,1-2.38-5.4,14,14,0,0,0-10.56-8.78c-12.2-2.63-13.66-6.18-6.66-17.74,13,.11,26.35-1.11,39.61,1.12a18,18,0,0,1,7.19,3c3.57,2.51,3.39,5.14-.05,7.89a12.61,12.61,0,0,1-2.17,1.48c-3.28,1.67-4,4.3-3,7.65.84,3,1.39,6,2.43,8.87,4.56,12.59,9.8,24.88,16.58,36.23l7.22.61c5.34-14.77,9.91-29.95,14.16-45.56A26.27,26.27,0,0,1,988.73,242c-2.35-3.32-.24-5.57,1.17-8.31s3.68-3.54,6-2.58c9.09,3.78,16.71-1.2,24.52-4C1028.44,224.21,1030.15,224.16,1037.05,231.22Z"/><path d="M1277,336.48,1273.37,347l-13.46,4.12a14.07,14.07,0,0,1-13.06-2.19c-4.39-3.14-8.79-6.09-14.89-5.1a20.59,20.59,0,0,0-6.71,1.77c-3.47,1.82-7.23,4.08-10.94,4.22-5.06.19-10.31,1.82-15.45-1.06a16.84,16.84,0,0,1-8-9.9c-1.34-3.9-3.38-7.61-4.35-11.59-1.79-7.41-1.39-14.82,2.53-21.59.75-1.29,2.72-2.09,4.29-2.66a23.83,23.83,0,0,0,10.36-7.81,51,51,0,0,1,6.91-6.8c4.4-3.64,9.35-6.67,13.39-10.65s7.2-8.75,11.13-13.65c-3.33-3.57-3.62-9.31-9-11.93-2-1-3.75-1.48-5.48-.52-4.76,2.65-9.63,5.2-14,8.46-4.73,3.55-9.05,7.61-14.66,9.66-6.81-6.07-7-13.74.1-19a50.8,50.8,0,0,0,11.81-12,30,30,0,0,1,17.86-11.66c3.22-.77,6.86-.07,10.27.3,1.7.19,3.26,1.38,5,1.72,9.58,1.91,14.39,9.3,19.14,16.67.88,1.37.87,3.36,1.13,5.08a106.87,106.87,0,0,1,1.64,19.35c-.44,14.44.95,28.94,1.63,43.42.12,2.4.47,4.8.69,7.21.58,6.13,3.83,9.64,10,10.85C1274.08,332.34,1274.08,332.34,1277,336.48Zm-41.69-47.26c-6.42,4.24-12.41,8.62-18.81,12.31-9.57,5.52-9.71,16.93-.92,23.66,5.07,3.87,10.8,3.33,16.14.51,4.7-2.48,7.75-6.14,7.13-12.13-.35-3.42.83-7,.27-10.38C1238.45,298.91,1239.86,294,1235.34,289.22Z"/><path d="M907.06,351.75c-9.39-.43-18.43-.82-27.47-1.29a46.66,46.66,0,0,1-5.86-.82c-3.72-.68-7.36-1.06-10.85,1.07-2.7,1.66-5.27,1.24-8-.45a83.64,83.64,0,0,0-8.74-4.2c-.3-6.13,5-8.5,7.49-12.5.92-1.45,2.53-2.67,2.92-4.22,3-11.81,7.25-23.41,6.3-35.92-.1-1.3.09-2.76-.42-3.89-2.17-4.74-3.74-9.33-.19-14.21.52-.72,0-2.65-.62-3.68-2.11-3.49-1.67-7.15-1.15-10.85,1.85-13.13,1.61-26.27.4-39.43-.28-3-.65-6.3.13-9.17,1.47-5.46-1.26-8.35-5.38-10.58a35,35,0,0,0-6.74-2.53c-3.44-1-6.18-3.84-5.66-6.73s1.73-5.16,5.47-6.35c6.09-1.94,12.95-2.67,17.6-8a68,68,0,0,1,8-8.47,43.1,43.1,0,0,1,10-6.07c4.54-2,6.22-1.1,6.58,3.73a62.8,62.8,0,0,1-.62,15.68c-2.43,13.31-2.35,26.62-1.41,40,.47,6.79,1.61,13.82.38,20.36-1.5,7.93-.59,15.6-.52,23.4,0,4.31-.22,8.61-.35,12.92,0,.44-.14.88-.12,1.31.82,13.54,1.62,27.08,2.5,40.61.11,1.74.7,3.44.92,5.18.6,4.72,2.74,8.16,7.39,9.94a24.72,24.72,0,0,1,5.06,3C909.52,343.38,909.8,344.52,907.06,351.75Z"/><path d="M1774.36,245.86c6.82-3,12.6-6.24,18.79-8,4.06-1.17,7.43-3.36,11.18-4.75s8.14-1.31,12.21-1.09c1.31.07,2.92,2.42,3.67,4.06,3.51,7.69,4.54,16,5.29,24.31,1.79,19.76.38,39.5-.4,59.25-.17,4.16-.28,8.34-.67,12.49-1.69,18.21-5.73,35.65-16.84,50.77-4.29,5.85-7.27,12.29-10,19.08a28.72,28.72,0,0,1-16.5,16.06c-2.86,1.09-5.57.9-7.8-1.61s-2-5.13-.34-7.82c.35-.55,1-1.13,1-1.69-.18-7.4,5-12.16,8.42-17.9,6-10.15,8.7-21.54,11.26-32.89,1.87-8.33,3.09-16.82,4.53-25.25.5-3,1.67-6-.58-8.86-.39-.51-.18-1.7.08-2.47,3.14-9.47.74-19.19,1.37-28.76-4.33-7.49-1.71-16.81-6.37-24.22-1.4-2.21-2.47-4.72-4.25-6.55-1.36-1.42-3.57-2.05-5.45-2.91a6.88,6.88,0,0,0-2-.18c-7.65-.89-9.15-3.13-6.9-10.36C1774.24,245.94,1774.58,245.37,1774.36,245.86Z"/><path d="M838.67,349.38c-3.66.56-6.2.89-8.72,1.33-11.21,2-22.2,2.23-32.8-3-1.93-1-4.63-.78-6.92-.57-6.33.57-12.6,1.72-18.93,2.11-5.54.35-6.7-1.57-6.19-7.22.54-6,3.47-9.32,9.13-11.33,10.7-3.79,10.59-4,12.14-15,1.65-11.72,4-23.44,2.86-35.32-.87-8.92-2.58-17.75-4-26.6a20.84,20.84,0,0,0-1.69-5c-2.53-5.66-4.21-6.38-10.1-4.65a24.43,24.43,0,0,1-3.06.49c-.31-4.46,3.36-10.16,7.55-10.63,8.92-1,17.9-1.54,26.86-1.83,3.85-.12,6.8,2.05,7,6.31.37,6.76.82,13.54.63,20.3-.28,10-2.23,20.07.08,30.11a2.9,2.9,0,0,1,0,1.31c-2.82,12.42,1.11,24.37,2.51,36.5a7.81,7.81,0,0,0,5.13,6.9c5.54,2.38,10.69,5.95,17.62,5.49C838.05,342.47,838.36,345.88,838.67,349.38Z"/><path d="M799.28,171.18c6.5-2.37,11.12,2.1,15.29,7.6.53.7,1.12,1.35,1.66,2.05,5.19,6.73,4.55,14.23-1.81,19.62a6.82,6.82,0,0,1-3.53,1.4c-6.76.73-13.53,1.68-20.31,1.84-7.44.17-13.57-7.35-12.38-14.67,1-6.28,4.24-11.51,8.62-16,1.07-1.09,3-1.58,4.62-1.81A64.77,64.77,0,0,1,799.28,171.18Z"/><path d="M1807,205.14c-6-.42-12.15-1.68-16.29-8-4-6.19-.6-15.53,2.88-20.27,4.61-6.31,16.43-8.73,23.37-5.14,6.22,3.22,9.49,12,7.44,20-.11.42-.18.86-.29,1.28C1821.22,203.12,1818.36,205.25,1807,205.14Z"/><path d="M326,432.64a15.52,15.52,0,0,1,2.12-5.81,9.36,9.36,0,0,0,.94-2.28q1.53-4.69,3-9.42c1-3.17.65-6.43.22-9.61-.66-4.85-2.73-9.26-4.84-13.64-3.41-7.1-8.44-12.95-13.88-18.52-4.58-4.7-9.27-9.31-13.51-14.29a129.23,129.23,0,0,1-12.93-17.83c-3.27-5.53-5.77-11.38-8.6-17.1a56.34,56.34,0,0,1-5.28-14c-.28-1.39-1-2.69-1.4-4.07-.66-2.2-1.22-4.43-1.83-6.65-.1-.34-.29-.66-.6-1.39-.37,1.61-.73,2.78-.9,4a31.88,31.88,0,0,1-2.49,7.81c-.93,2.23-2.39,4.17-3.13,6.5a10.77,10.77,0,0,1-2.8,4c-1.83,1.84-2.54,4.22-3.7,6.41-1.41,2.66-1.18,5.74-2.56,8.39a10.43,10.43,0,0,1-.71,1.3c-1,1.46-1.92,3-2.84,4.49-1.05,1.7-2.75,2.88-3.9,4.38-3,3.87-6.9,6.94-9.16,11.39-.54,1.07-1.77,1.79-2.67,2.67-.73.72-1.47,1.43-2.19,2.15a19.74,19.74,0,0,1-2.32,2.34,41.83,41.83,0,0,0-8.21,8.07c-2.23,2.75-3.45,5.94-5.31,8.83-.12.2-.13.48-.28.64-3.45,3.74-5.49,8.4-8.22,12.61a4.61,4.61,0,0,0-.43,1.07c-.59,1.65-1.17,3.29-1.74,4.95-.15.43-.27.87-.4,1.31-.22.73-.23,1.64-.7,2.15-1.52,1.66-1.48,3.74-1.28,5.61.44,4.07,1.39,8.08,1.95,12.15.51,3.76,2.22,7.11,3.3,10.68a28.45,28.45,0,0,1,1,3.71,20.57,20.57,0,0,1-3-4.54,121.33,121.33,0,0,1-7.36-17.9c-.91-2.7-2.06-5.48-2.15-8.26-.08-2.43-1-4.91-.14-7.37.73-2.23,1.42-4.47,2.2-6.91a5.53,5.53,0,0,0-.66-.54c-8.29-5.43-16.7-10.68-24.84-16.33A164.68,164.68,0,0,1,153,356.12a18.46,18.46,0,0,1-1.47-1.9l-.51.39c.58,1.4,1.18,2.79,1.74,4.2a11.69,11.69,0,0,1,.76,2.25c.41,2.55,1.68,4.78,2.49,7.18a59.35,59.35,0,0,1,1.84,6.41,70.35,70.35,0,0,1,1.46,8.11,43,43,0,0,1,.06,6.9c-.25,4.65-.27,9.32-1.14,13.94-.31,1.62-.2,3.32-.42,5A38.44,38.44,0,0,1,154.2,420a18.35,18.35,0,0,0-.73,2.49c-.19.61-.25,1.44-.67,1.75a6.58,6.58,0,0,0-1,5.54c.48,2.46.29,5,1.38,7.42,1.22,2.65,2.1,5.46,3.25,8.14.72,1.69,1.65,3.28,2.53,4.9,3.34,6.13,8.25,10.95,13.21,15.73l2,1.91-.29.39c-.81-.57-1.65-1.09-2.43-1.71a116.57,116.57,0,0,1-21.32-21.31,11.5,11.5,0,0,0-4.92-3.24,134.91,134.91,0,0,1-17.09-8.55c-1.35-.79-2.67-1.61-4.39-2.64a6.76,6.76,0,0,0,.47,1.24c4.36,6.17,7.43,13,10.59,19.82,1.32,2.81,2.7,5.61,3.81,8.5a66.86,66.86,0,0,1,2.62,8.43c.82,3.46,1.1,7.06,2.06,10.47a54.69,54.69,0,0,0,4.26,11.63c4,11.71,14,18.71,20.47,23.11a8.13,8.13,0,0,0,1.43.87c-.14.18-.29,1.36-.43,1.53a6.91,6.91,0,0,1-1.09-.26c-7.29-2.79-19.79-10.11-26.63-14-4.23-2.4-8.53-4.7-12.6-7.36-5.89-3.83-11.64-7.88-17.35-12-17.53-12.53-32.77-27.56-47.07-43.6A191.75,191.75,0,0,1,41.1,406.41c-2.28-4-4.93-7.82-7.3-11.8-2.11-3.56-4.08-7.21-6.07-10.84-1.11-2-2.09-4.13-3.2-6.16a95.79,95.79,0,0,1-8.64-21.94c-1.31-5.08-3.23-10-4.69-15-.81-2.83-1.26-5.76-1.86-8.64-.85-4.11-1.65-8.23-2.52-12.34s-2.05-8.33-2.68-12.55-.7-8.67-1.14-13c-.19-2-.65-3.88-1-5.83-.29-1.62-.65-3.24-.86-4.87C.83,281,.6,278.68.42,276.31c-.1-1.23,0-2.47,0-3.71-.13-3.71-.66-7.43-.19-11.15.26-2,.78-4,1-6,.34-2.7.56-5.43.8-8.15.3-3.38.6-6.76.81-10.14.14-2.13.05-4.27.21-6.39a126.27,126.27,0,0,1,1.82-15c.86-4.32,1.38-8.71,2.24-13a27.34,27.34,0,0,1,1.77-4.87c1.13-2.79,2.44-5.5,3.43-8.33s1.78-5.87,2.6-8.83c.37-1.34.62-2.71.92-4.07.36-1.56.68-3.14,1.08-4.7.63-2.5,1.23-5,2-7.49a13.93,13.93,0,0,1,1.82-3.31,50.11,50.11,0,0,0,4.56-7.91A6.22,6.22,0,0,1,27,150.65a6.88,6.88,0,0,0,2.09-3.09c.58-1.28,1.44-2.45,2-3.75.91-2.26,1.64-4.59,2.48-6.87.33-.87.77-1.7,1.16-2.55,1.19-2.68,2.32-5.4,3.59-8,.66-1.35,1.64-2.55,2.35-3.88,1.08-2,2.15-4,3-6.15a28,28,0,0,1,5.23-8.8,17,17,0,0,0,1.37-2,26.3,26.3,0,0,1,7.17-7.09c1.8-1.2,3.07-3.17,4.62-4.76.67-.69,1.42-1.3,2.14-1.93.17-.15.46-.24.53-.42,1.15-3,3.91-4.46,6.12-6.44,1.55-1.4,3.54-2.52,4.58-4.23,1.23-2,3.23-3.18,4.62-5a69.21,69.21,0,0,1,5.82-6.18c.65-.66,1.52-1.1,2.23-1.71,2.38-2.06,4.68-4.22,7.12-6.21,1.37-1.12,3-2,4.44-2.95.78-.52,1.56-1,2.3-1.61,1.22-1,2.44-1.89,3.59-2.91s2-2,3-3c1.91-1.81,3.85-3.59,5.77-5.38a8.68,8.68,0,0,1,3.57-2.1c1.23-.35,2.2-1.58,3.43-1.94,1.61-.48,2.8-2,4.66-1.79a.93.93,0,0,0,.72-.55,3.21,3.21,0,0,1,2.46-2.48c1.18-.39,1.77-1.55,3-2.08,2.06-.9,3.81-2.49,5.79-3.6a90.49,90.49,0,0,0,8.94-5.42,13.64,13.64,0,0,1,4.89-1.68,10.8,10.8,0,0,0,5.08-2.33,34.24,34.24,0,0,1,3.61-2.18,27.52,27.52,0,0,0,3.08-2.52c1.92-1.76,3.86-3.34,6.72-3.23.78,0,1.55-.69,2.36-.89,1.37-.33,2.81-.38,4.14-.81A27.12,27.12,0,0,0,183,9.69a25.42,25.42,0,0,1,8-3.2,56.88,56.88,0,0,0,5.75-2.12,21.73,21.73,0,0,1,2.77-.74A28.31,28.31,0,0,0,203,3c3.23-1.12,6.65-.92,9.93-1.64,2.68-.58,5.42-.81,8.12-1.28a3.62,3.62,0,0,1,3.26,1,54.69,54.69,0,0,1,8.44,9.47c4.25,5.86,7.21,12.35,10,19,1.92,4.63,2.89,9.45,4.16,14.21.86,3.22,1.7,6.45,2.31,9.72.85,4.49,1.38,9,2.2,13.54.5,2.73,1.26,5.42,2,8.1,1.36,5.12,2.71,10.25,4.18,15.34a54.84,54.84,0,0,1,2.5,12.34c0,.64.11,1.27.14,1.9a66.75,66.75,0,0,0,1.72,12.72,46.56,46.56,0,0,1,.67,6.6c.39,4.34.81,8.67,1.16,13,.1,1.17,0,2.36,0,3.53.11,3.72.08,7.44.39,11.14.41,5,1,9.94,1.69,14.89a106.56,106.56,0,0,0,2.26,12.33,44.44,44.44,0,0,1,1.49,13.23c-.23,5.4.57,10.74.42,16.12-.07,2.6,0,5.2,0,7.8a11.88,11.88,0,0,0,.28,1.81c.32-.12.58-.16.59-.22q.24-4.24.43-8.49a32.06,32.06,0,0,1,1.12-8.7,11.73,11.73,0,0,0,.06-2.79,38,38,0,0,1,.43-4,29.38,29.38,0,0,0,.38-7.56c-.32-3.89-.9-7.78,0-11.77a14.32,14.32,0,0,0-.56-7.23,11.14,11.14,0,0,1-.39-6.77c.67-2.14.58-4.5.83-6.76a1.7,1.7,0,0,1,.14-.69c1.36-2.08.79-4.45,1-6.69.35-3.63.52-7.28.85-10.91.1-1.09.58-2.14.75-3.23a5.53,5.53,0,0,0,0-2.59c-.91-2.35-.31-4.65.46-6.72,1.07-2.9,1.12-5.92,1.71-8.86.27-1.3.36-2.63.61-3.93.63-3.42,1.34-6.83,1.93-10.25A37.5,37.5,0,0,0,281,95.5a65.68,65.68,0,0,1,1.82-12.31,21.08,21.08,0,0,0,.39-3.56c.17-2.37.19-4.75.48-7.1a33.3,33.3,0,0,1,1.19-5.59c.65-2.11,1.61-4.12,2.31-6.22a24.63,24.63,0,0,0,1.39-5.28,32.47,32.47,0,0,1,2.5-8.78c1.43-3.69,3-7.33,4.24-11.06,1.44-4.27,2.88-8.45,6-11.9,1.29-1.4,1.85-3.45,2.85-5.14.82-1.37,1.86-2.61,2.73-3.95a56.4,56.4,0,0,1,3.67-5.73c1.58-1.86,1.78-4.48,3.8-6.06,1.76-1.39,3.4-2.28,5.82-1.45s5.09,1.06,7.62,1.69c2.77.7,5.48,1.63,8.25,2.31,5.79,1.41,11.34,3.66,17.28,4.54a37.1,37.1,0,0,1,5.25,1.57c4.05,1.23,8.14,2.32,12.13,3.7,3.53,1.23,7,2.67,10.4,4.21C385,21.12,388.77,23,392.51,25c2.32,1.22,4.5,2.72,6.73,4.1,7.26,4.51,14.66,8.8,21.74,13.56a260.1,260.1,0,0,1,53,47.23,201.22,201.22,0,0,1,17.81,24.08c3.88,6.23,8,12.33,11.86,18.56,1.94,3.11,3.65,6.36,5.45,9.56s3.73,6.5,5.41,9.85c1.61,3.19,3.07,6.47,4.4,9.79,1.41,3.54,2.73,7.14,3.85,10.79,1.51,4.94,2.72,10,4.18,14.93,1.17,3.95,2.53,7.85,3.79,11.78,1,3.16,2.12,6.31,2.91,9.53.5,2.07.36,4.28.74,6.39.61,3.43,1.46,6.81,2.12,10.23.86,4.41,2.24,8.69,2.1,13.33-.14,4.43.5,8.87.58,13.32a66,66,0,0,1-.61,6.85c-.35,4.1-1.18,8.17-.64,12.33a10.54,10.54,0,0,1-.16,4,15.36,15.36,0,0,0-.13,4.92c.09,1.79-.12,3.58-.17,5.37a13.88,13.88,0,0,0,0,4c1,3.61.22,7-.61,10.47-.64,2.68-1.64,5.29-2.08,8s-1.7,5.46-1.93,8.39-1.22,5.75-1.81,8.64a38.76,38.76,0,0,0-1,5.83c-.12,2.93-1.26,5.55-2,8.29-.38,1.33-.37,2.76-.63,4.14s-.64,3.06-1,4.58c-.29,1.24-.53,2.5-.94,3.7-.51,1.49-1.15,2.95-1.78,4.4a55,55,0,0,0-2.88,7.38,28.68,28.68,0,0,1-2,4.28c-.21.43-.58.87-.57,1.3.09,4.47-2.81,7.69-4.66,11.35a9.45,9.45,0,0,0-.51,1.69,4.57,4.57,0,0,1-.29,1.13c-.91,1.54-1.81,3.1-2.84,4.56a22.65,22.65,0,0,0-2.85,5,10.26,10.26,0,0,1-1.9,2.65c-1.71,2-3.63,3.91-5.15,6.07a29.6,29.6,0,0,0-3.33,6.26c-1.42,3.64-2.7,7.27-5.58,10.14-1.21,1.2-1.85,2.94-3,4.26-1.36,1.62-2.93,3.06-4.42,4.58-.22.22-.58.4-.66.67-1.08,3.43-3.91,5.65-5.78,8.52a22.28,22.28,0,0,1-1.27,2.43c-1.15,1.34-2.51,2.52-3.73,3.81a19.28,19.28,0,0,0-2.09,2.52c-.86,1.31-1.56,2.72-2.39,4a7.32,7.32,0,0,1-1.29,1.38c-3.24,3-6.48,6-9.74,8.9a29.09,29.09,0,0,1-3,2.34,5.87,5.87,0,0,0-2.64,2.64,1.63,1.63,0,0,1-.87.78c-3.2,1.29-5.16,4-7.49,6.33-.23.22-.45.58-.71.62-1.72.3-2.18,1.85-3.1,3s-1.87,2.11-2.84,3.14c-1.17,1.23-2.35,2.45-3.56,3.65-.53.52-1.08,1.28-1.72,1.38-2.12.35-3.59,1.86-5.41,2.72-3,1.43-5,3.7-7.93,5.27-1,.5-3.29,1.2-4,2a9.81,9.81,0,0,1-4,3c-1.34.55-2.8,2.11-4,3-2.47,1.8-2.57,3.14-5,5-1.57,1.19-9.38,8.88-11,10-1.28.88-6.57,5.36-8,6s-5.49,1.4-7,2-13.39,7.59-15,8c-2.06.51-17.91,4.79-20,5-.76.07-6.23-.24-7,.06a32.85,32.85,0,0,1-5.55,1.85c.42-.6.71-1.53,1.28-1.76,2.8-1.12,8.19-2.65,10.7-4.15,2.77.08,18.64-9.31,20.88-10.88.89-.62,12.94-9,13.84-9.6a3.73,3.73,0,0,0,1.28-2.52c.12-1.26,10.42-9.92,11.46-10.94,1.73-1.71,2.16-4.13,2.91-6.32a57.39,57.39,0,0,1,3.25-8.83,12,12,0,0,0,1.16-3.62c.82-4.9,1.33-9.87,2.37-14.72.86-4.07,1.34-8.29,3.53-12a57.43,57.43,0,0,0,2.87-5.36,35.43,35.43,0,0,0,1.34-4.24,9,9,0,0,1,2.13-3.83,9.11,9.11,0,0,0,1.86-4.11,4.12,4.12,0,0,1,.86-2.08,13.44,13.44,0,0,0,1.69-2.55c.15-.27,0-.69,0-1.4-.85.74-1.61,1.11-1.93,1.71-.94,1.82-2.91,2.33-4.25,3.6-2.72,2.59-6.27,4-9.12,6.43-1.75,1.51-4.11,2.37-6.28,3.34a6.13,6.13,0,0,0-2.89,2.66c-1.11,1.89-2.07,4-3.61,5.48-2,2-3.69,4.29-5.92,6.12-2.84,2.34-5.35,5.08-8.05,7.59a24.55,24.55,0,0,1-2.83,2.12c-1.91,1.31-3.83,2.62-5.79,3.85-.39.25-1,.14-1.52.19l.05,0,3.37-3.73c1.81-.18,2.43-1.9,3.58-2.89,2-1.71,3.42-4,5.77-5.41a3.2,3.2,0,0,0,1.3-1.38c1.28-3,3.54-5.34,5.14-8.11a41.17,41.17,0,0,0,1.86-3.84c.64-1.45,1.18-2.94,1.81-4.39a16.87,16.87,0,0,0,1.16-7.7A80.72,80.72,0,0,0,381,423c-.45-2.48-1.41-4.87-1.91-7.35-.86-4.21-1.63-8.44-2.24-12.69a25.65,25.65,0,0,1,.19-4.7,34.32,34.32,0,0,0,.13-5c-.45-4.26.49-8.32,1.43-12.4a13.49,13.49,0,0,0,.46-3.26,21.16,21.16,0,0,1,2-8.73c1.32-3.11,2.73-6.18,4.08-9.28.58-1.34,1.1-2.72,1.82-4.51-.91.55-1.62.72-1.77,1.1-1.14,2.93-4.45,3.45-6.2,5.69a2.73,2.73,0,0,1-1.46.75c-3,.77-5.23,3.05-8.13,4a.7.7,0,0,0-.39.25c-1.27,2.21-3.79,2.77-5.59,4.28-.83.69-1.54,1.53-2.31,2.29-.28.28-.54.72-.87.79-1.69.37-2.3,2.16-3.95,2.75-1.39.49-2.46,1.89-3.68,2.87-.44.35-.9.93-1.35.93-3.11,0-5.1,2.54-7.86,3.37-1,.29-1.66,1.49-2.6,2.2-1.45,1.09-3.12,1.5-4.79,2.49.56,1.83,1.1,3.72,1.71,5.59.83,2.56,2,5.07,1.87,7.8a37.66,37.66,0,0,1-1.12,8.37c-.66,2.25-2.21,4.25-3.35,6.36-.37.69-.71,1.38-1,2.09-.83,1.76-2.12,3.48-2.34,5.33s-1.26,2.85-2.18,4.12-1.85,2.73-2.8,4.07c-.14.15-.19.29-.33.46Z"/></g></g></svg>